<svg width="22" height="24" viewBox="0 0 22 24" fill="none" xmlns="http://www.w3.org/2000/svg">
<g clip-path="url(#clip0)">
<path d="M21.999 19.6785C21.9489 13.8075 21.8862 7.93655 21.8361 2.06558C20.9962 2.06558 20.1814 1.52365 19.8304 0.736551C19.3791 1.14945 18.9153 1.57526 18.3386 1.743C17.762 1.91074 17.0349 1.7301 16.7717 1.17526C16.6589 0.9301 16.6338 0.646229 16.4959 0.426874C16.007 -0.424739 14.7409 0.168809 14.0389 0.826874C13.3369 1.49784 12.146 2.16881 11.5569 1.38171C11.2184 0.9301 11.1307 0.0268737 10.5791 0.130099C10.6292 0.865583 9.61385 1.40752 9.06228 0.930099C8.86171 0.762358 8.73635 0.517196 8.56086 0.336551C7.63322 -0.566675 6.2543 0.633325 5.05088 1.08494C3.92268 1.49784 2.56883 1.12365 1.80416 0.181712L1.31527 0.0397769C0.625813 1.29139 0.437779 2.50429 0.46285 3.75591C3.67197 5.39462 8.39789 4.5301 11.7198 3.80752C12.2213 3.70429 12.4344 4.49139 11.9329 4.59462C8.52325 5.3301 3.91014 6.15591 0.512992 4.67204C0.66342 6.23333 1.06456 7.85913 1.20245 9.63978C1.50331 13.3688 0.675955 18.0785 0.0742459 21.7688C-0.0511102 22.5172 -0.101253 23.472 0.538064 23.8462C0.813847 24.014 1.13977 24.014 1.45316 24.0011C5.17624 23.9753 8.88678 23.9495 12.6099 23.9107C15.493 23.8849 18.6019 23.7946 20.921 22.0398C21.3096 21.743 21.6731 21.3946 21.8486 20.943C22.0116 20.543 22.0116 20.1043 21.999 19.6785ZM15.3677 16.8527C13.8133 19.2011 10.7671 19.5495 8.36029 18.4269C4.57453 16.6462 5.01328 11.3817 7.05658 8.38816C7.3449 7.96236 8.03436 8.36236 7.74604 8.80107C5.61499 11.9366 5.57738 17.1882 10.0025 18.0914C12.0081 18.5043 13.9261 17.8849 14.9666 15.9882C15.5808 14.8656 15.9443 13.343 15.8064 12.0527C15.5181 9.18816 11.77 6.27204 9.11242 7.93655C8.67368 8.20752 8.27254 7.51075 8.71128 7.22687C11.6822 5.343 15.8691 8.22042 16.5335 11.4462C16.8845 13.2011 16.3329 15.4075 15.3677 16.8527ZM9.50103 15.0849C10.0401 15.7172 11.2685 15.4075 11.9329 15.214C12.6851 14.9946 13.2993 14.5946 13.6628 13.8591C13.901 13.3946 14.5779 13.8075 14.3523 14.272C13.8383 15.3043 12.8982 15.8333 11.8327 16.0785C10.8549 16.2978 9.67653 16.5172 8.93692 15.6656C8.59846 15.2785 9.15003 14.6978 9.50103 15.0849Z" fill="white"/>
</g>
<defs>
<clipPath id="clip0">
<rect width="22" height="24" fill="white"/>
</clipPath>
</defs>
</svg>
