<svg width="38" height="20" viewBox="0 0 38 20" fill="none" xmlns="http://www.w3.org/2000/svg">
<g clip-path="url(#clip0)">
<path d="M4.19222 6.54122L0.864013 2.89416C0.537031 2.52945 -0.0585438 2.81181 -0.000154145 3.29416C0.443607 6.69416 2.27704 12.4942 1.73986 14.9059C1.28442 16.9648 5.2082 14.4942 5.51183 8.43534C5.55854 7.65887 4.71773 7.10593 4.19222 6.54122Z" fill="white"/>
<path d="M29.9188 3.2824C29.0196 2.90593 27.8751 3.35299 27.2095 4.09416C26.8591 4.4824 26.6606 4.98828 26.4738 5.49416C25.8432 7.2471 25.3994 9.07063 25.1542 10.9295C24.8155 10.8942 24.4768 10.8589 24.1382 10.8118C24.2082 9.95299 24.2433 9.09416 24.2199 8.2471C24.2082 7.29416 22.7251 7.2824 22.7368 8.2471C22.7485 9.03534 22.7251 9.83534 22.6668 10.6236C22.223 10.5648 21.7792 10.4942 21.3355 10.4353C21.3472 9.45887 20.88 8.37652 20.5647 7.52946C20.0275 6.07063 19.3853 4.63534 18.7196 3.22357C18.3109 2.35299 17.038 3.11769 17.4467 3.97652C18.0189 5.20005 18.5795 6.4471 19.07 7.71769C19.3035 8.35299 19.8173 9.38828 19.8524 10.2C18.9649 10.0471 18.0773 9.89416 17.1898 9.72946C17.1081 9.41181 16.9212 9.07063 16.8395 8.80005C16.5125 7.83534 16.1738 6.8824 15.8352 5.92946C15.1812 4.0824 14.5856 2.18828 13.7799 0.400044C13.3945 -0.470544 12.1216 0.282397 12.507 1.15299C13.231 2.77652 13.7682 4.50593 14.3521 6.17652C14.6674 7.0824 14.9827 7.97652 15.298 8.8824C15.3447 9.00004 15.3797 9.20005 15.4381 9.41181C14.5623 9.2471 13.6747 9.0824 12.7989 8.90593C12.7172 8.22357 12.0982 7.41181 11.818 6.8471C11.3859 5.97652 10.9655 5.11769 10.5334 4.2471C10.113 3.38828 8.84009 4.14122 9.26049 5.00005C9.84439 6.18828 10.4049 7.38828 11.0005 8.56475C9.66922 8.31769 8.34961 8.0824 7.01833 7.85887C6.08409 7.70593 5.68704 9.14122 6.62128 9.29416C7.96424 9.51769 9.3072 9.75299 10.6385 10C10.4166 10.2942 10.1714 10.5883 9.93781 10.8706C9.43566 11.4706 8.91015 12.0706 8.38465 12.6471C7.74236 13.353 8.78169 14.4 9.42398 13.6942C10.0896 12.9648 10.7436 12.2236 11.3742 11.4471C11.6194 11.1412 11.9931 10.7412 12.2968 10.3059C13.1843 10.4706 14.0718 10.6471 14.9593 10.8118C14.8659 10.9295 14.7725 11.0353 14.6791 11.153C14.0134 11.9177 13.3361 12.6706 12.6588 13.4118C11.7012 14.4706 10.7436 15.5295 9.77432 16.5765C9.13203 17.2824 10.1714 18.3295 10.8137 17.6236C11.888 16.4589 12.9624 15.2942 14.0251 14.1059C14.7608 13.2824 15.5082 12.4589 16.2205 11.6236C16.349 11.4706 16.5125 11.3059 16.676 11.1295C17.5401 11.2824 18.4043 11.4471 19.2802 11.5883C18.8014 12.1648 18.1474 12.7177 17.7737 13.1295C16.8628 14.1412 15.987 15.1765 15.1812 16.2824C14.609 17.0471 15.8936 17.8 16.4541 17.0353C17.5285 15.5765 18.7663 14.2706 19.9575 12.9059C20.2377 12.5883 20.5764 12.2236 20.845 11.8471C21.3939 11.9295 21.9544 12.0118 22.5149 12.0942C22.4332 12.6353 22.3281 13.1765 22.1996 13.6942C21.9661 14.6236 23.3908 15.0236 23.6244 14.0942C23.7645 13.5059 23.8813 12.8942 23.9747 12.2824C24.3717 12.3295 24.7688 12.3765 25.1658 12.4118C24.7571 15.9648 25.0374 13.5412 24.7454 17.2824C24.6754 18.1648 24.687 19.2118 25.3877 19.7059C25.7731 19.9765 26.2519 19.9883 26.719 19.9883C32.4879 20.0118 37.7663 15.7059 38.0116 13.6353C38.2685 11.2942 32.4645 4.32946 29.9188 3.2824ZM30.9464 11.2706C30.3041 11.2706 29.7903 10.7412 29.7903 10.1059C29.7903 9.45887 30.3158 8.94122 30.9464 8.94122C31.5887 8.94122 32.1025 9.47063 32.1025 10.1059C32.1142 10.7412 31.5887 11.2706 30.9464 11.2706Z" fill="white"/>
</g>
<defs>
<clipPath id="clip0">
<rect width="38" height="20" fill="white"/>
</clipPath>
</defs>
</svg>
