<svg width="16" height="20" viewBox="0 0 16 20" fill="none" xmlns="http://www.w3.org/2000/svg">
<g clip-path="url(#clip0)">
<path d="M15.1932 1.58132C14.3068 1.16197 13.2273 0.828636 12.2273 0.688851C11.8864 0.64584 11.5455 0.76412 11.4432 1.10821C11.3637 1.38778 11.5455 1.79638 11.8864 1.85014C11.9773 1.86089 12.0682 1.8824 12.1591 1.9039C12.1705 1.91466 12.1932 1.92541 12.2046 1.93616C13.3182 2.42003 11.6023 3.09745 11.0796 3.20498C10.6591 3.291 10.2046 3.30175 9.78412 3.33401C9.05685 3.38778 8.32957 3.43079 7.6023 3.45229C5.75003 3.40928 3.89776 3.22649 2.07957 2.8824C1.75003 2.81788 1.15912 2.81788 1.36366 2.21573C1.45457 1.94692 2.31821 1.78563 2.56821 1.72111C3.32957 1.54907 4.1023 1.43079 4.87503 1.35552C6.3523 1.20498 7.82957 1.19423 9.31821 1.23724C10.1364 1.25874 10.1364 0.0651952 9.31821 0.0436898C7.15912 -0.0423317 4.96594 0.0221844 2.84094 0.420034C1.55685 0.667346 -0.352245 1.16197 0.0568463 2.82864C0.19321 3.37702 0.647755 3.72111 1.21594 3.94692C1.21594 3.96842 1.21594 3.97917 1.21594 3.98993C1.59094 7.8824 1.51139 11.8179 2.05685 15.6996C2.2273 16.9039 2.54548 18.1082 3.54548 18.9362C4.79548 19.9792 6.27275 19.7641 7.80685 19.7964C9.17048 19.8179 10.9546 20.3125 12.2273 19.6996C13.6591 19.0114 13.8409 16.6136 14.0341 15.3125C14.6137 11.4308 14.1137 7.46305 14.9432 3.60283C14.9546 3.53831 14.9546 3.4738 14.9546 3.40928C15.3523 3.32326 15.7159 3.17272 15.8978 2.86089C16.2273 2.291 15.6818 1.81788 15.1932 1.58132ZM14.8978 2.17272L14.9091 2.16197C14.9773 2.16197 14.9318 2.17272 14.8978 2.17272ZM8.12503 6.31251C8.12503 6.32326 8.12503 6.33401 8.12503 6.33401C8.12503 6.32326 8.12503 6.32326 8.12503 6.31251ZM12.6932 11.119C12.7046 11.1082 13.0796 11.1512 13.0909 11.1405C13.0796 11.4308 12.6705 15.1727 12.6705 15.1297C12.6591 14.9147 12.7046 11.334 12.6932 11.119ZM13.6023 3.86089C13.6137 3.86089 13.6137 3.86089 13.6023 3.86089V3.87165C13.6023 3.87165 13.6023 3.87165 13.6023 3.86089ZM14.8296 2.77487L14.8182 2.76412C14.8296 2.77487 14.8296 2.77487 14.8296 2.77487ZM14.7728 2.74261C14.7841 2.74261 14.7841 2.74261 14.7728 2.74261C14.7841 2.75337 14.7841 2.75337 14.7841 2.75337C14.7955 2.76412 14.8068 2.77487 14.8182 2.78563C14.8182 2.77487 14.7841 2.76412 14.7728 2.74261ZM2.51139 4.24799C3.04548 4.32326 3.59094 4.35552 4.04548 4.38778C4.03412 4.39853 4.03412 4.40928 4.02276 4.42003C3.67048 4.36627 3.26139 4.55982 3.25003 4.98993C3.15912 7.37702 3.06821 9.78563 3.23866 12.1727C3.19321 13.1405 3.19321 14.0975 3.23866 15.0652C3.21594 14.7856 3.19321 14.5061 3.17048 14.248C2.84094 10.9039 2.80685 7.57057 2.51139 4.24799Z" fill="white"/>
</g>
<defs>
<clipPath id="clip0">
<rect width="16" height="20" fill="white"/>
</clipPath>
</defs>
</svg>
