<svg width="40" height="40" viewBox="0 0 40 40" fill="none" xmlns="http://www.w3.org/2000/svg">
<g clip-path="url(#clip0)">
<path d="M22.4299 32.2744H15.9502V23.3025H13.2087V17.3211H15.9502V13.209C15.9502 9.59529 18.8162 6.72925 22.4299 6.72925H26.6667V13.209H23.4268C22.8038 13.209 22.4299 13.7074 22.4299 14.2059V17.1965H25.1714V23.1778H22.4299V32.2744ZM17.4455 30.7791H20.9346V21.8071H23.676V18.8165H20.9346V14.3305C20.9346 12.9598 22.0561 11.8383 23.4268 11.8383H25.1714V8.22457H22.4299C19.6885 8.22457 17.4455 10.4676 17.4455 13.209V18.6919H14.7041V21.6825H17.4455V30.7791Z" fill="white"/>
<path d="M34.1427 5.85636C26.2922 -1.99411 13.7066 -1.99411 5.85611 5.85636C-1.99436 13.7068 -1.99436 26.2925 5.85611 34.143C13.7066 41.9934 26.2922 41.9934 34.1427 34.143C41.9932 26.2925 41.9932 13.7068 34.1427 5.85636ZM20.0617 38.7536C9.71904 38.7536 1.37013 30.4046 1.37013 20.062C1.37013 9.71929 9.71904 1.37038 20.0617 1.37038C30.4044 1.37038 38.7533 9.71929 38.7533 20.062C38.6287 30.4046 30.2798 38.7536 20.0617 38.7536Z" fill="white"/>
</g>
<defs>
<clipPath id="clip0">
<rect y="0.000244141" width="40" height="40" fill="white"/>
</clipPath>
</defs>
</svg>
