<svg width="69" height="69" viewBox="0 0 69 69" fill="none" xmlns="http://www.w3.org/2000/svg">
<path d="M34.2826 69C53.2004 69 68.5363 53.6299 68.5363 34.6699C68.5363 15.7099 53.2004 0.339844 34.2826 0.339844C15.3647 0.339844 0.0288086 15.7099 0.0288086 34.6699C0.0288086 53.6299 15.3647 69 34.2826 69Z" fill="#FFA400"/>
<path d="M35.7523 42.9407H29.8738V34.7831H27.3867V29.3447H29.8738V25.6057C29.8738 22.32 32.4739 19.7141 35.7523 19.7141H39.596V25.6057H36.6567C36.0915 25.6057 35.7523 26.0589 35.7523 26.5121V29.2314H38.2394V34.6698H35.7523V42.9407ZM31.2304 41.6944H34.3957V33.5368H36.8828V30.8176H34.3957V26.7387C34.3957 25.4924 35.4132 24.4727 36.6567 24.4727H38.2394V21.187H35.7523C33.2652 21.187 31.2304 23.2264 31.2304 25.719V30.7043H28.7433V33.4235H31.2304V41.6944Z" fill="#FCFCFC"/>
<path d="M46.3788 19.0344C39.2568 11.8964 27.8389 11.8964 20.7168 19.0344C13.5947 26.1723 13.5947 37.6156 20.7168 44.7536C27.8389 51.8915 39.2568 51.8915 46.3788 44.7536C53.5009 37.6156 53.5009 26.059 46.3788 19.0344ZM33.6043 48.9457C24.2213 48.9457 16.647 41.3546 16.647 31.9506C16.647 22.5467 24.2213 14.9555 33.6043 14.9555C42.9874 14.9555 50.5616 22.5467 50.5616 31.9506C50.4486 41.2413 42.8743 48.8324 33.6043 48.9457Z" fill="#FCFCFC"/>
</svg>
