<svg width="59" height="49" viewBox="0 0 59 49" fill="none" xmlns="http://www.w3.org/2000/svg">
<g clip-path="url(#clip0)">
<path d="M25.1634 48.5928C26.8726 47.8081 27.9804 49.0323 29.1832 47.8081C31.0824 47.8395 31.842 47.4 33.7412 47.2745C36.7481 47.0861 37.7294 48.7498 40.2615 47.4628C45.7691 50.0682 50.5802 44.2296 54.062 38.7991C57.2272 33.9023 62.6714 20.1848 55.3281 18.8036C53.967 18.5525 55.2964 15.3821 49.1559 17.4538C48.4912 16.7633 49.8839 17.9561 49.1559 17.4538C49.0293 13.2162 48.143 8.97851 45.7691 5.11753C45.6425 4.80362 45.1044 4.17582 44.9778 3.89331C43.7433 1.03681 42.7621 -0.0932343 39.2803 0.283447C37.6344 0.471788 35.0706 -0.469916 33.8361 0.471788C29.1832 3.95609 28.8667 5.05475 24.9418 2.983C21.1752 1.00542 18.4214 4.5525 14.7814 6.96954C10.6033 9.76326 8.95737 9.26102 9.17893 13.8754C9.36885 18.1758 6.10865 14.4718 3.4182 17.8933C2.08881 19.5256 1.07593 20.7184 0.759406 22.9471C0.601144 23.983 0.632797 24.9561 0.791059 25.8664C-1.89939 28.0637 3.10168 31.3911 3.25994 34.844C3.73473 43.8529 7.81788 49.7543 16.1741 48.9381" fill="#FFA400"/>
</g>
<path d="M31.7523 37.9405H25.8738V29.7828H23.3867V24.3444H25.8738V20.6055C25.8738 17.3198 28.4739 14.7139 31.7523 14.7139H35.596V20.6055H32.6567C32.0915 20.6055 31.7523 21.0587 31.7523 21.5119V24.2311H34.2394V29.6695H31.7523V37.9405ZM27.2304 36.6942H30.3957V28.5365H32.8828V25.8173H30.3957V21.7385C30.3957 20.4922 31.4132 19.4725 32.6567 19.4725H34.2394V16.1868H31.7523C29.2652 16.1868 27.2304 18.2262 27.2304 20.7188V25.704H24.7433V28.4232H27.2304V36.6942Z" fill="#FCFCFC"/>
<defs>
<clipPath id="clip0">
<rect width="59" height="49" fill="white"/>
</clipPath>
</defs>
</svg>
