<svg width="40" height="40" viewBox="0 0 40 40" fill="none" xmlns="http://www.w3.org/2000/svg">
<g clip-path="url(#clip0)">
<rect y="0.000244141" width="40" height="40" fill="#009D4F"/>
<path d="M34.1425 5.85563C26.292 -1.99484 13.7063 -1.99484 5.85587 5.85563C-1.9946 13.7061 -1.9946 26.2918 5.85587 34.1422C13.7063 41.9927 26.292 41.9927 34.1425 34.1422C41.9929 26.2918 41.9929 13.7061 34.1425 5.85563ZM20.0615 38.7528C9.7188 38.7528 1.36989 30.4039 1.36989 20.0612C1.36989 9.71855 9.7188 1.36964 20.0615 1.36964C30.4042 1.36964 38.7531 9.71855 38.7531 20.0612C38.6285 30.4039 30.2795 38.7528 20.0615 38.7528Z" fill="white"/>
<path d="M25.296 8.59839H14.8287C11.4642 8.59839 8.59814 11.3398 8.59814 14.8289V25.2962C8.59814 28.6607 11.3396 31.5267 14.8287 31.5267H25.296C28.6604 31.5267 31.5265 28.7853 31.5265 25.2962V14.8289C31.4019 11.4644 28.6604 8.59839 25.296 8.59839ZM30.0312 25.2962C30.0312 27.913 27.9128 30.156 25.1714 30.156H14.7041C12.0872 30.156 9.84425 28.0376 9.84425 25.2962V14.8289C9.96886 12.0875 12.0872 9.96911 14.7041 9.96911H25.1714C27.7882 9.96911 30.0312 12.0875 30.0312 14.8289V25.2962Z" fill="white"/>
<path d="M20.0623 13.832C16.5732 13.832 13.8318 16.5735 13.8318 20.0626C13.8318 23.5517 16.5732 26.2931 20.0623 26.2931C23.5514 26.2931 26.2928 23.5517 26.2928 20.0626C26.2928 16.5735 23.4268 13.832 20.0623 13.832ZM20.0623 24.9224C17.3209 24.9224 15.2025 22.6794 15.2025 20.0626C15.2025 17.3211 17.4455 15.2027 20.0623 15.2027C22.8038 15.2027 24.9221 17.4457 24.9221 20.0626C24.9221 22.804 22.6791 24.9224 20.0623 24.9224Z" fill="white"/>
<path d="M26.4175 11.5891C25.4206 11.5891 24.5483 12.4614 24.5483 13.4583C24.5483 14.4552 25.4206 15.3274 26.4175 15.3274C27.4144 15.3274 28.2867 14.4552 28.2867 13.4583C28.2867 12.4614 27.4144 11.5891 26.4175 11.5891ZM26.4175 13.9567C26.1683 13.9567 25.9191 13.7075 25.9191 13.4583C25.9191 13.209 26.1683 12.9598 26.4175 12.9598C26.6667 12.9598 26.9159 13.209 26.9159 13.4583C26.9159 13.7075 26.6667 13.9567 26.4175 13.9567Z" fill="white"/>
</g>
<defs>
<clipPath id="clip0">
<rect y="0.000244141" width="40" height="40" fill="white"/>
</clipPath>
</defs>
</svg>
