<svg width="53" height="50" viewBox="0 0 53 50" fill="none" xmlns="http://www.w3.org/2000/svg">
<g clip-path="url(#clip0)">
<path d="M49.8857 32.5399C48.7987 30.4578 48.4461 27.4536 50.3264 26.0259C50.7671 25.6987 51.2665 25.4905 51.7366 25.193C49.7388 24.0628 47.7117 22.992 45.6551 21.9509C45.9783 21.3263 46.1252 20.8801 45.9195 20.7314C45.802 16.7159 45.0382 10.8266 42.8641 7.13831C42.7466 6.84087 42.6584 6.54342 42.5116 6.24598C41.3658 3.53926 39.1329 0.267399 35.9012 0.624329C34.3735 0.802795 31.4062 1.24896 29.9666 0.951515C25.9123 0.178166 25.4423 2.52796 21.7992 0.564841C18.3031 -1.30904 15.4827 2.05205 12.1041 4.34235C8.22606 6.95984 5.96387 7.73319 6.14014 12.1056C6.31642 16.1805 4.81808 16.0616 3.43726 21.1181C2.90843 23.0515 1.29258 23.8248 0.998789 25.9069C0.851893 26.8885 0.881272 27.8105 1.02817 28.6731C-1.46906 30.7552 1.35134 33.3727 1.49823 36.6446C1.93892 45.1811 6.46331 47.1145 14.2488 46.3709C14.5426 46.3412 15.4533 45.2109 15.7471 45.1811C17.6862 46.1329 20.389 51.7546 25.2366 49.5238C26.8231 48.8099 26.6174 48.6315 27.7338 47.4417C29.4966 47.4714 31.2593 47.4417 33.0221 47.3227C35.5487 47.174 38.1047 47.055 40.3081 46.133C40.69 46.133 41.072 46.0437 41.4539 45.8653C44.1862 44.4078 42.4822 38.9646 45.3613 37.8046C47.8586 36.7933 50.914 40.541 53.0293 38.8456C52.6767 36.4958 51.0021 34.6219 49.8857 32.5399Z" fill="#FFA400"/>
</g>
<path d="M29.4942 16.0737H19.9981C16.9458 16.0737 14.3457 18.5663 14.3457 21.7388V31.256C14.3457 34.3151 16.8328 36.921 19.9981 36.921H29.4942C32.5465 36.921 35.1467 34.4284 35.1467 31.256V21.7388C35.1467 18.5663 32.5465 16.0737 29.4942 16.0737ZM33.9031 31.256C33.9031 33.6353 31.9813 35.6747 29.4942 35.6747H19.9981C17.6241 35.6747 15.5892 33.7486 15.5892 31.256V21.7388C15.5892 19.3594 17.5111 17.32 19.9981 17.32H29.4942C31.8682 17.32 33.9031 19.2461 33.9031 21.7388V31.256Z" fill="#FCFCFC"/>
<path d="M24.7462 20.8325C21.5808 20.8325 19.0938 23.3251 19.0938 26.4975C19.0938 29.67 21.5808 32.1626 24.7462 32.1626C27.9116 32.1626 30.3986 29.67 30.3986 26.4975C30.3986 23.3251 27.9116 20.8325 24.7462 20.8325ZM24.7462 30.9163C22.2591 30.9163 20.3373 28.8769 20.3373 26.4975C20.3373 24.0049 22.3722 22.0788 24.7462 22.0788C27.2333 22.0788 29.1551 24.1182 29.1551 26.4975C29.1551 28.8769 27.2333 30.9163 24.7462 30.9163Z" fill="#FCFCFC"/>
<path d="M30.5117 18.793C29.6073 18.793 28.8159 19.5861 28.8159 20.4925C28.8159 21.3989 29.6073 22.192 30.5117 22.192C31.416 22.192 32.2074 21.3989 32.2074 20.4925C32.2074 19.4728 31.5291 18.793 30.5117 18.793ZM30.5117 20.9457C30.2856 20.9457 30.0594 20.7191 30.0594 20.4925C30.0594 20.2659 30.2856 20.0393 30.5117 20.0393C30.7377 20.0393 30.9638 20.2659 30.9638 20.4925C30.9638 20.7191 30.8508 20.9457 30.5117 20.9457Z" fill="#FCFCFC"/>
<defs>
<clipPath id="clip0">
<rect width="53" height="50" fill="white"/>
</clipPath>
</defs>
</svg>
