<svg width="69" height="69" viewBox="0 0 69 69" fill="none" xmlns="http://www.w3.org/2000/svg">
<path d="M34.7462 68.6601C53.664 68.6601 68.9999 53.29 68.9999 34.33C68.9999 15.3701 53.664 0 34.7462 0C15.8284 0 0.492432 15.3701 0.492432 34.33C0.492432 53.29 15.8284 68.6601 34.7462 68.6601Z" fill="#FFA400"/>
<path d="M47.6337 18.5812C40.5116 11.4433 29.0937 11.4433 21.9717 18.5812C14.8496 25.7192 14.8496 37.1625 21.9717 44.3004C29.0937 51.4384 40.5116 51.4384 47.6337 44.3004C54.7558 37.1625 54.6427 25.6059 47.6337 18.5812ZM34.7462 48.4926C25.3631 48.4926 17.7889 40.9014 17.7889 31.4975C17.7889 22.0935 25.3631 14.5024 34.7462 14.5024C44.1292 14.5024 51.7035 22.0935 51.7035 31.4975C51.7035 40.7881 44.1292 48.3793 34.7462 48.4926Z" fill="#FCFCFC"/>
<path d="M39.4942 21.0737H29.9981C26.9458 21.0737 24.3457 23.5663 24.3457 26.7388V36.256C24.3457 39.3151 26.8328 41.921 29.9981 41.921H39.4942C42.5465 41.921 45.1467 39.4284 45.1467 36.256V26.7388C45.1467 23.5663 42.5465 21.0737 39.4942 21.0737ZM43.9031 36.256C43.9031 38.6353 41.9813 40.6747 39.4942 40.6747H29.9981C27.6241 40.6747 25.5892 38.7486 25.5892 36.256V26.7388C25.5892 24.3594 27.5111 22.32 29.9981 22.32H39.4942C41.8682 22.32 43.9031 24.2461 43.9031 26.7388V36.256Z" fill="#FCFCFC"/>
<path d="M34.7462 25.8323C31.5808 25.8323 29.0938 28.3249 29.0938 31.4973C29.0938 34.6697 31.5808 37.1623 34.7462 37.1623C37.9116 37.1623 40.3986 34.6697 40.3986 31.4973C40.3986 28.3249 37.9116 25.8323 34.7462 25.8323ZM34.7462 35.916C32.2591 35.916 30.3373 33.8766 30.3373 31.4973C30.3373 29.0047 32.3722 27.0786 34.7462 27.0786C37.2333 27.0786 39.1551 29.118 39.1551 31.4973C39.1551 33.8766 37.2333 35.916 34.7462 35.916Z" fill="#FCFCFC"/>
<path d="M40.5117 23.793C39.6073 23.793 38.8159 24.5861 38.8159 25.4925C38.8159 26.3989 39.6073 27.192 40.5117 27.192C41.416 27.192 42.2074 26.3989 42.2074 25.4925C42.2074 24.4728 41.5291 23.793 40.5117 23.793ZM40.5117 25.9457C40.2856 25.9457 40.0594 25.7191 40.0594 25.4925C40.0594 25.2659 40.2856 25.0393 40.5117 25.0393C40.7377 25.0393 40.9638 25.2659 40.9638 25.4925C40.9638 25.7191 40.8508 25.9457 40.5117 25.9457Z" fill="#FCFCFC"/>
</svg>
