<svg xmlns="http://www.w3.org/2000/svg" viewBox="0 0 330.05 366.58"><defs><style>.cls-1{fill:#f2a226;}.cls-2{fill:#fff;}</style></defs><title>Asset 1</title><g id="Layer_2" data-name="Layer 2"><g id="Layer_1-2" data-name="Layer 1"><path class="cls-1" d="M264.83,269.65a20.11,20.11,0,0,0-8.64,1.71,15.08,15.08,0,0,0-5.87,4.72,18.61,18.61,0,0,0-3,6.34,26.53,26.53,0,0,0-.76,4.45,16.52,16.52,0,0,1,4.58-.67c9.22,0,16.83,7.66,18.12,17.63a14,14,0,0,0,1.78-.87,16.7,16.7,0,0,0,5.73-5.38,20.1,20.1,0,0,0,2.68-6.56,30,30,0,0,0,.68-6c0-4.61-1.21-8.32-3.59-11S270.11,269.65,264.83,269.65Z"/><path class="cls-1" d="M286.18,187.68c-3.08-2.81-7.75-4.17-14.3-4.17h-9c-1.68,0-3.56.17-4.83,1.44s-1.59,2.8-1.74,6.13q-.76,11.34-1.38,19.44c-.41,5.42-.77,10-1.07,13.86s-.54,7.05-.7,9.49-.3,4.46-.45,6c-.16,1.72-.26,3.1-.32,4.21s-.08,2.18-.08,3.15a38.9,38.9,0,0,0,.6,7.13,14.92,14.92,0,0,0,2.49,6.09,11.36,11.36,0,0,0,5.38,4,21,21,0,0,0,7.46,1.14h5.52a6.63,6.63,0,0,0,4.6-1.46,7,7,0,0,0,2.06-4.31l1.84-9.2q1.08-5.37,2.23-11.28c.77-3.93,1.53-7.93,2.3-12s1.47-8,2.08-11.65,1.11-7.1,1.48-10.19a66.7,66.7,0,0,0,.56-7.68A13.5,13.5,0,0,0,286.18,187.68Z"/><path class="cls-2" d="M297.09,181.9a42.81,42.81,0,0,0-1-7.23c-.62-3.18-1.71-8.15-3.25-14.76s-3.64-15.33-6.29-26-6-24.37-10.11-40.9c-.54-2.24-1.94-6.62-1.94-6.62A58.18,58.18,0,0,0,271.75,79a10.72,10.72,0,0,0-5.84-5c-2.09-.66-4.76-.63-7.89-.63H243.45a14.1,14.1,0,0,0-5,.61c-1.46.56-2.67,1.79-3.92,4a112.89,112.89,0,0,0-5,10.45c-2.11,4.85-4.47,10.5-7,16.8s-5.24,13.17-7.92,20.21-5.2,14-7.4,20.51-4.05,12.42-5.49,17.57c-.47,1.65-.85,3.14-1.17,4.52-1.14-1.74-2.62-3.95-4.43-6.61l-10.69-15.29a33.88,33.88,0,0,0,13.24-13.92,46.48,46.48,0,0,0,4.16-12.44c-1.17-3.15,1.4-18.43-14.07-21.06-7.32-1.24-9.24-8.93-8.11-16.41a9.07,9.07,0,0,1-3.24-.28c-4.54-1.22-7.65-5.59-7.09-9.86-2.13-.2-4.35-.31-6.68-.31s-4.72.07-7.47.23-5.62.33-8.7.54c-2.93.2-6.13.38-9.51.53s-6.48.23-9.58.23a5.37,5.37,0,0,0-5.26,4.49c-.22.94-.57,2.94-1,9.41l-.85,15.17c-.35,6.41-.94,14.84-1.75,25.05q-.61,7.36-1.15,14.51c-.14,1.75-.26,3.43-.39,5.08a30.41,30.41,0,0,0-3.53-9.86,21.39,21.39,0,0,0-7.26-7.4,20,20,0,0,0,1.86-1.39,24.17,24.17,0,0,0,5.77-7.21,30.72,30.72,0,0,0,2.93-8.35,43,43,0,0,0,.83-8.23,30.86,30.86,0,0,0-2.77-13.23A25.06,25.06,0,0,0,107,81.34a43.76,43.76,0,0,0-14.69-5.93,78.62,78.62,0,0,0-12-1.7c1.22,3.5.63,5.59-2.69,5-26.69-4.45-25.45,2.4-28.45,6.39-2.25,6.21-7.5,14.13,1.44,19.23,11.54,6.57-19.68-1.51-9.69,21.51,1.42,3.28-.88,3.41-4.92,1.6,0,.43-.07.85-.1,1.29-.63,7.5-1.11,13.5-1.46,18.34s-.64,8.84-.85,11.91-.36,5.46-.46,7.14-.16,3.12-.16,4.12c0,3.47.24,10.92,1.35,13.5,2.45,5.67,12,5.87,16.41,6.68a5.51,5.51,0,0,0-.81,2.83c0,.86.16,2.48,1.3,7.9.82,3.89,2,9.35,3.69,16.68s3.73,16.27,6.21,26.85,5.54,23.45,9,37.79c.54,2.25,1.19,4.5,1.93,6.67.81,2.38,2.56,7.9,3.66,9.9a4,4,0,0,0,1.09,1.21c3.92-2,17.62-3.43,23.4-16.25,4.82-10.71,17.49-13.22,23.82-9.5.45-1.09.91-2.2,1.37-3.33,2.57-6.26,5.19-13,7.78-19.95,2.46-6.6,4.73-13,6.79-19.15a103.52,103.52,0,0,0-2.17,21.14A86.79,86.79,0,0,0,139.9,273a43.3,43.3,0,0,0,7.65,16.69,38,38,0,0,0,14.6,11.36c6,2.74,13.55,4.14,22.48,4.14a60.58,60.58,0,0,0,21.1-3.36,51,51,0,0,0,15.5-8.95A48.67,48.67,0,0,0,231.85,280a73.25,73.25,0,0,0,6.34-14.7,86.33,86.33,0,0,0,3.19-15.08,118.44,118.44,0,0,0,.87-13.72A80.23,80.23,0,0,0,239.83,216a41.3,41.3,0,0,0-8-16,35.3,35.3,0,0,0-14.37-10.16c-.82-.33-1.67-.62-2.54-.9,1.09,0,2,0,2.49,0h8.13a6.63,6.63,0,0,0,6.73-4.8l0-.11,3.49-14.59a7.84,7.84,0,0,1,9.35-11.74,10.24,10.24,0,0,1,4.78-4.3c5.2-2.29,15,1,15.52,6.66.44,4.85-9.92,5.29-4.08,19.06,0,.09.07.18.1.26a19.86,19.86,0,0,0,1.07,1.8,16.3,16.3,0,0,0,7.49,5.9,31.07,31.07,0,0,0,11.77,1.86h7.82c2.21,0,4.86,0,6.14-1C297.26,186.74,297.09,184.42,297.09,181.9ZM71.62,108.18q.16-3.59.34-6.53l1.43-.17a30.87,30.87,0,0,1,3.39-.21c4,0,6.92.82,8.32,2.36a8.42,8.42,0,0,1,2.27,5.94,11.34,11.34,0,0,1-.42,3,5.14,5.14,0,0,1-1.34,2.24,8.55,8.55,0,0,1-3.15,1.95,17.7,17.7,0,0,1-6.14.84,28.82,28.82,0,0,1-5.19-.52C71.34,113.91,71.5,110.94,71.62,108.18Zm2.7,56.89a27.92,27.92,0,0,1-6.43-.84l1.33-19.57c.74-.1,1.48-.18,2.2-.25,1.52-.14,2.8-.22,3.82-.22,4,0,6.78.9,8.19,2.66a11.44,11.44,0,0,1,2.41,7.48,19.28,19.28,0,0,1-.47,4,7.78,7.78,0,0,1-1.51,3.24A9,9,0,0,1,80.55,164,15,15,0,0,1,74.32,165.07Zm43.38,23.27c-1.25,1.06-2.13,2.74-2.86,5.51-2.61,10.44-4.83,19.42-6.59,26.69s-3.39,13.63-4.89,19.24S100.3,251,98.77,256.44c-.42,1.51-.88,3.1-1.36,4.76-1.17-7.18-2.17-13.33-3-18.4q-2-12.48-3.15-19.84c-.75-4.85-1.29-8.51-1.59-10.86s-.62-4.52-.93-6.3a31.72,31.72,0,0,0-1.8-7.21c-.94-2.45-2.3-5.72-4.26-7.55-.14-.14-.29-.26-.43-.38a63,63,0,0,0,8.63-1.84,45.73,45.73,0,0,0,16.21-8.07,28.9,28.9,0,0,0,9-12.31q.29-.76.54-1.56c-.11,2.3-.17,4-.17,5.06,0,5.42-.33,10.83,2.74,13.78A7.83,7.83,0,0,0,121,187,6.69,6.69,0,0,0,117.7,188.34Zm36.52-76.4q.28-5.55.53-10l2.05-.22c1.41-.14,2.69-.21,3.8-.21,4,0,6.89.79,8.25,2.27s2.19,4.1,2.19,7.4a28.46,28.46,0,0,1-.49,4.94,12.36,12.36,0,0,1-1.75,4.54,10.76,10.76,0,0,1-3.6,3.45,11.39,11.39,0,0,1-6,1.35,34,34,0,0,1-5.79-.58C153.74,120.38,154,116,154.22,111.94Zm-3.8,95.63a57.15,57.15,0,0,0-6,10.38c.44-1.52.86-3,1.24-4.39a128.2,128.2,0,0,0,2.82-12.71c.72-4.56,1.36-6.85-2.39-9.15a16.43,16.43,0,0,0-1.63-.84,8.06,8.06,0,0,0,.83-2.16,4.78,4.78,0,0,0,2.56-1.47,6.52,6.52,0,0,0,1.4-3.53l0-.23v-.19c0-.05,0-.62.29-3.43.21-2.13.41-4.77.63-8.09s.45-6.84.76-10.92q.33-4.44.67-9.2c1,.13,2.11.24,3.28.33,1.06,4.21,2.19,8.3,3.36,12.19A69.75,69.75,0,0,0,163.39,177a34.11,34.11,0,0,0,7.16,9.42,15.79,15.79,0,0,0,5.06,3.09,47.49,47.49,0,0,0-6.76,2.74A51.34,51.34,0,0,0,150.42,207.57Zm55.71,41.31a52.11,52.11,0,0,1-3.24,12.39,29,29,0,0,1-6.25,9.77,12.06,12.06,0,0,1-9.1,3.52c-.32,0-.63,0-.94,0-.79,2.6-4.15,2.18-10.81-3.61-4.5-3.9-9.62,1.06-9.79-8.2-.08-4.48,2.73-7.47,7-8.43h0c0-1-.07-2.09-.07-3.19,0-2,.1-4.22.3-6.71a56.66,56.66,0,0,1,1.16-7.67,47.45,47.45,0,0,1,2.36-7.66,23.77,23.77,0,0,1,3.76-6.32,16.57,16.57,0,0,1,5.49-4.26,17.56,17.56,0,0,1,7.79-1.58c4.76,0,7.88,1.55,9.83,4.86,2.24,3.81,3.37,9.19,3.37,16A86,86,0,0,1,206.13,248.88ZM244,136.39l5.9-21.31,3.39,21.31Z"/><path class="cls-2" d="M13.84,90.08A3.2,3.2,0,0,1,15,91.32,3.73,3.73,0,0,1,15.41,93a6,6,0,0,1-.33,2,10,10,0,0,1-1,2.15l-2.26,3.55L0,93.13l2.57-4a7,7,0,0,1,1.24-1.5,4.88,4.88,0,0,1,1.36-.89,3.06,3.06,0,0,1,1.38-.24,2.76,2.76,0,0,1,1.31.44,2.94,2.94,0,0,1,1.39,1.79,4.7,4.7,0,0,1-.07,2.43,4.52,4.52,0,0,1,2.22-1.48A3,3,0,0,1,13.84,90.08ZM7,92.71A3.06,3.06,0,0,0,7.57,91a1.61,1.61,0,0,0-.78-1.32,1.41,1.41,0,0,0-1.36-.17A2.74,2.74,0,0,0,4.25,90.6l-.83,1.3,2.93,1.86Zm5.09-.3a1.57,1.57,0,0,0-1.63-.1A3.88,3.88,0,0,0,9,93.78L8.23,95l3.21,2,.83-1.3a3.18,3.18,0,0,0,.65-2A1.69,1.69,0,0,0,12.11,92.41Z"/><path class="cls-2" d="M24.72,70.79a7.89,7.89,0,0,1,1.89,2.12,6.88,6.88,0,0,1,.94,2.49,6.37,6.37,0,0,1-.16,2.7,8.07,8.07,0,0,1-3.73,4.66,6.6,6.6,0,0,1-2.61.75,6.68,6.68,0,0,1-2.64-.37,8.82,8.82,0,0,1-4.36-3.5,6.52,6.52,0,0,1-.94-2.5,6.43,6.43,0,0,1,.16-2.71A8,8,0,0,1,17,69.77,6.49,6.49,0,0,1,19.6,69a7,7,0,0,1,2.65.38A8.39,8.39,0,0,1,24.72,70.79Zm-.55,8.56A4,4,0,0,0,25,77.71a3.63,3.63,0,0,0,0-1.64,4.54,4.54,0,0,0-.74-1.58,7.77,7.77,0,0,0-3-2.44,4.42,4.42,0,0,0-1.7-.37A3.62,3.62,0,0,0,17.9,72a4,4,0,0,0-1.41,1.17,3.89,3.89,0,0,0-.83,1.63,3.68,3.68,0,0,0,0,1.65A4.58,4.58,0,0,0,16.41,78a6.94,6.94,0,0,0,1.36,1.41,7.53,7.53,0,0,0,1.68,1,4.63,4.63,0,0,0,1.7.38,3.63,3.63,0,0,0,1.61-.35A4,4,0,0,0,24.17,79.35Z"/><path class="cls-2" d="M27.9,57.25l8.26,8.18,3.66-3.69,1.65,1.63-5.72,5.78-9.92-9.82Z"/><path class="cls-2" d="M51.56,49.28a3.86,3.86,0,0,1,.8,1.54,3.94,3.94,0,0,1,0,1.71,5,5,0,0,1-.7,1.73,6.66,6.66,0,0,1-1.43,1.61,10.51,10.51,0,0,1-1.87,1.25,8.78,8.78,0,0,1-2,.79l-1-2.11a10.31,10.31,0,0,0,1.69-.62,7.25,7.25,0,0,0,1.63-1,3.09,3.09,0,0,0,1-1.42,1.38,1.38,0,0,0-.29-1.38,1.51,1.51,0,0,0-1.28-.55,8.69,8.69,0,0,0-2.12.47,15.23,15.23,0,0,1-1.76.45,5.54,5.54,0,0,1-1.5.07,3.78,3.78,0,0,1-1.29-.38,3.7,3.7,0,0,1-1.1-.9,3.61,3.61,0,0,1-.9-3.12,5.53,5.53,0,0,1,2-3.05,10.14,10.14,0,0,1,1.73-1.17,7.13,7.13,0,0,1,1.83-.66l1,2.07a9,9,0,0,0-1.55.55,5.84,5.84,0,0,0-1.4.89,2.8,2.8,0,0,0-.92,1.22,1.16,1.16,0,0,0,.26,1.19,1.62,1.62,0,0,0,.45.39,1.2,1.2,0,0,0,.57.14,4.06,4.06,0,0,0,.78-.09c.31-.06.68-.16,1.12-.29s1.15-.33,1.71-.45A6.58,6.58,0,0,1,48.76,48a4.07,4.07,0,0,1,1.5.32A3.38,3.38,0,0,1,51.56,49.28Z"/><path class="cls-2" d="M71,40.38l-2.52,1.7L66,40.19,61.28,43.4l.82,3-2.52,1.7-3.4-14.54,2.64-1.78ZM58.81,34.6,60.62,41,64.1,38.7Z"/><path class="cls-2" d="M83.74,28.84a3.79,3.79,0,0,1,.47,1.67,4,4,0,0,1-.31,1.68,4.91,4.91,0,0,1-1,1.55A6.88,6.88,0,0,1,81.12,35a10.59,10.59,0,0,1-2.09.83,8.76,8.76,0,0,1-2.15.35l-.52-2.27a9.88,9.88,0,0,0,1.78-.25A7.08,7.08,0,0,0,80,33a3.05,3.05,0,0,0,1.31-1.18,1.39,1.39,0,0,0,0-1.41,1.48,1.48,0,0,0-1.13-.79,8.3,8.3,0,0,0-2.18,0,14.43,14.43,0,0,1-1.81.07,5.28,5.28,0,0,1-1.49-.25,3.65,3.65,0,0,1-1.18-.64,4,4,0,0,1-1.11-4.34A5.51,5.51,0,0,1,75,21.91a9.59,9.59,0,0,1,1.93-.79,7.23,7.23,0,0,1,1.92-.26l.57,2.24a9.1,9.1,0,0,0-1.63.21,6,6,0,0,0-1.56.58,2.75,2.75,0,0,0-1.15,1,1.19,1.19,0,0,0,0,1.22,2,2,0,0,0,.36.47,1.32,1.32,0,0,0,.53.26,4.28,4.28,0,0,0,.79.08c.31,0,.69,0,1.15-.06s1.19-.07,1.77-.08a7.06,7.06,0,0,1,1.62.18,4.15,4.15,0,0,1,1.4.64A3.33,3.33,0,0,1,83.74,28.84Z"/><path class="cls-2" d="M111,18a3.28,3.28,0,0,1,.13,1.69,3.66,3.66,0,0,1-.71,1.54,5.83,5.83,0,0,1-1.48,1.32,9.54,9.54,0,0,1-2.15,1l-4,1.36L98.26,11.74l4.52-1.54a7.1,7.1,0,0,1,1.91-.4,4.66,4.66,0,0,1,1.62.15,3.11,3.11,0,0,1,1.22.68,2.7,2.7,0,0,1,.76,1.16,3,3,0,0,1,0,2.27,4.74,4.74,0,0,1-1.57,1.85,4.51,4.51,0,0,1,2.66.23A3,3,0,0,1,111,18Zm-7-2.21a2.92,2.92,0,0,0,1.52-1,1.56,1.56,0,0,0,.21-1.51,1.4,1.4,0,0,0-1-1,2.72,2.72,0,0,0-1.63.14l-1.46.49,1.13,3.3Zm4.16,2.94A1.56,1.56,0,0,0,107,17.65a3.93,3.93,0,0,0-2.09.21l-1.32.45,1.23,3.61,1.46-.5A3.27,3.27,0,0,0,108,20.27,1.69,1.69,0,0,0,108.16,18.74Z"/><path class="cls-2" d="M123.09,18.81l-2.85.71L116.86,6l2.84-.71Z"/><path class="cls-2" d="M144,7.89a8.18,8.18,0,0,1,0,2.84,6.81,6.81,0,0,1-1,2.47,6.23,6.23,0,0,1-1.94,1.88,7.37,7.37,0,0,1-2.86,1,7.29,7.29,0,0,1-3-.12A6.44,6.44,0,0,1,131,12.71a8.32,8.32,0,0,1-.88-2.7,8.33,8.33,0,0,1,0-2.82,6.44,6.44,0,0,1,2.95-4.37,8,8,0,0,1,5.9-.9,6.41,6.41,0,0,1,2.42,1.21,6.9,6.9,0,0,1,1.69,2.08A8.3,8.3,0,0,1,144,7.89Zm-6.2,5.93a4.06,4.06,0,0,0,1.72-.64,3.77,3.77,0,0,0,1.1-1.22,4.43,4.43,0,0,0,.52-1.66,7.2,7.2,0,0,0,0-2,7.46,7.46,0,0,0-.54-1.89,4.42,4.42,0,0,0-1-1.43,3.51,3.51,0,0,0-1.42-.83,3.94,3.94,0,0,0-1.83-.11,4.08,4.08,0,0,0-1.71.65,3.56,3.56,0,0,0-1.11,1.21A4.68,4.68,0,0,0,133,7.6a7.29,7.29,0,0,0,.05,2,6.92,6.92,0,0,0,.54,1.89,4.51,4.51,0,0,0,1,1.42,3.6,3.6,0,0,0,1.42.84A4.08,4.08,0,0,0,137.84,13.82Z"/><path class="cls-2" d="M152.71.16,156.92,0a10,10,0,0,1,3.36.4,7.58,7.58,0,0,1,2.6,1.37,6.52,6.52,0,0,1,1.72,2.15,6.85,6.85,0,0,1,.67,2.77,6.51,6.51,0,0,1-.48,2.8,6.42,6.42,0,0,1-1.55,2.27,7.72,7.72,0,0,1-2.51,1.55,10.31,10.31,0,0,1-3.32.64l-4.21.14Zm4.68,11.47a6.32,6.32,0,0,0,2-.39,4.56,4.56,0,0,0,1.59-1,4.19,4.19,0,0,0,1-1.5,5,5,0,0,0,.31-2,4.9,4.9,0,0,0-.45-1.94,4.12,4.12,0,0,0-1.11-1.43,4.8,4.8,0,0,0-1.65-.86,6.61,6.61,0,0,0-2.07-.24l-1.34,0,.33,9.3Z"/><path class="cls-2" d="M174.53,0l8.36.58-.16,2.32-5.44-.37-.23,3.36,5.18.36-.16,2.32-5.18-.36-.25,3.6,5.5.38L182,14.52l-8.42-.58Z"/><path class="cls-2" d="M199.67,2.67a13.07,13.07,0,0,1,2.28.59,7.75,7.75,0,0,1,2,1l-.81,2.16a12.74,12.74,0,0,0-1.71-.9A9.23,9.23,0,0,0,199.5,5a6,6,0,0,0-2.06,0,4.11,4.11,0,0,0-1.68.66A4.18,4.18,0,0,0,194.52,7a6.63,6.63,0,0,0-.73,2.15,4.89,4.89,0,0,0,.58,3.75,4.94,4.94,0,0,0,3.38,1.83,8.39,8.39,0,0,0,1,.1,5.79,5.79,0,0,0,.95,0l.71-4.06,2.6.45-1,5.62a11.38,11.38,0,0,1-2.4.26,14.51,14.51,0,0,1-2.65-.21,8.88,8.88,0,0,1-3-1A6.74,6.74,0,0,1,192,14a6.24,6.24,0,0,1-1.07-2.44,7.9,7.9,0,0,1,0-2.91,8.48,8.48,0,0,1,1-2.89,6.29,6.29,0,0,1,1.88-2,6.75,6.75,0,0,1,2.61-1.08A8.9,8.9,0,0,1,199.67,2.67Z"/><path class="cls-2" d="M222.73,13a3.83,3.83,0,0,1-1.51,2.17,5.35,5.35,0,0,1-2.75.82l2.95,6.73-3.5-1-2.46-6-.9-.26-1.43,4.89-2.82-.82,3.91-13.41,4,1.17a10,10,0,0,1,2.22.92A5.56,5.56,0,0,1,222,9.46a4,4,0,0,1,.81,1.62A3.85,3.85,0,0,1,222.73,13Zm-2.84-.76a1.66,1.66,0,0,0-.37-1.73,4.4,4.4,0,0,0-2-1.07L216.4,9.1l-1.22,4.18.84.25a4.53,4.53,0,0,0,2.5.12A1.94,1.94,0,0,0,219.89,12.24Z"/><path class="cls-2" d="M240.31,30.2,237.5,29l.23-3.09-5.3-2.22-2,2.33-2.81-1.17,10.28-10.83,2.94,1.23Zm-1.89-13.37L234,21.88l3.87,1.61Z"/><path class="cls-2" d="M254.05,21.47l3.68,2.06a10.12,10.12,0,0,1,2.66,2.08,7.69,7.69,0,0,1,1.52,2.53,6.29,6.29,0,0,1,.34,2.72,6.6,6.6,0,0,1-.86,2.72,6.82,6.82,0,0,1-1.86,2.15A6.57,6.57,0,0,1,257,36.86a7.83,7.83,0,0,1-2.94,0,10,10,0,0,1-3.17-1.18l-3.68-2.06Zm-2,12.23a6.12,6.12,0,0,0,2,.73,4.66,4.66,0,0,0,1.86,0,4.16,4.16,0,0,0,1.64-.76,4.75,4.75,0,0,0,1.28-1.53,4.7,4.7,0,0,0,.63-1.89,4.15,4.15,0,0,0-.21-1.79,4.71,4.71,0,0,0-1-1.6,6.35,6.35,0,0,0-1.63-1.27l-1.17-.66-4.55,8.12Z"/><path class="cls-2" d="M274.47,51,272,49.22l.9-3-4.68-3.33-2.5,1.81L263.23,43l12.42-8.29,2.59,1.85Zm1.11-13.46-5.39,4,3.42,2.43Z"/><path class="cls-2" d="M290.56,59.64a3.16,3.16,0,0,1-1.4,1,3.71,3.71,0,0,1-1.7.14,5.74,5.74,0,0,1-1.87-.63,9.84,9.84,0,0,1-2-1.37l-3.15-2.8,9.27-10.43,3.57,3.17a6.67,6.67,0,0,1,1.29,1.47,4.57,4.57,0,0,1,.66,1.48,3,3,0,0,1,0,1.4,2.8,2.8,0,0,1-.64,1.23,3,3,0,0,1-2,1.09,4.81,4.81,0,0,1-2.38-.46,4.55,4.55,0,0,1,1.11,2.42A3,3,0,0,1,290.56,59.64Zm-2-2.08a1.56,1.56,0,0,0,.35-1.59,3.87,3.87,0,0,0-1.21-1.72l-1-.92-2.53,2.85,1.15,1a3.25,3.25,0,0,0,1.87,1A1.68,1.68,0,0,0,288.54,57.56Zm.51-5.06a3,3,0,0,0,1.64.81,1.57,1.57,0,0,0,1.42-.56,1.41,1.41,0,0,0,.39-1.31,2.77,2.77,0,0,0-.92-1.35l-1.16-1-2.31,2.6Z"/><path class="cls-2" d="M306,61l-8.52,7.92L301,72.7l-1.71,1.58-5.53-6L304,58.82Z"/><path class="cls-2" d="M315.43,71.83l5.11,6.65L318.7,79.9l-3.32-4.32-2.68,2.06,3.17,4.11L314,83.17l-3.17-4.11L308,81.25l3.37,4.37L309.52,87l-5.15-6.69Z"/><path class="cls-2" d="M322.45,99.42a3.79,3.79,0,0,1-1.64.59,4,4,0,0,1-1.7-.19,4.78,4.78,0,0,1-1.61-.92,6.8,6.8,0,0,1-1.41-1.65,10.69,10.69,0,0,1-1-2,8.87,8.87,0,0,1-.5-2.13l2.22-.67a10.44,10.44,0,0,0,.38,1.75A7.56,7.56,0,0,0,318,96a3.06,3.06,0,0,0,1.27,1.22,1.4,1.4,0,0,0,1.41-.11,1.5,1.5,0,0,0,.71-1.19,8.72,8.72,0,0,0-.17-2.17,14.06,14.06,0,0,1-.21-1.8,5.4,5.4,0,0,1,.14-1.49,3.62,3.62,0,0,1,.56-1.23,3.33,3.33,0,0,1,1-1,3.55,3.55,0,0,1,3.21-.47,5.49,5.49,0,0,1,2.74,2.42,9.85,9.85,0,0,1,.93,1.87,8,8,0,0,1,.4,1.9l-2.19.73a9,9,0,0,0-.33-1.61,6.44,6.44,0,0,0-.69-1.51,2.87,2.87,0,0,0-1.09-1.08,1.18,1.18,0,0,0-1.21.1,1.76,1.76,0,0,0-.45.39,1.1,1.1,0,0,0-.21.54,3,3,0,0,0,0,.8c0,.31.06.69.13,1.14.09.6.17,1.18.21,1.76a6.28,6.28,0,0,1-.06,1.63,4.15,4.15,0,0,1-.53,1.45A3.34,3.34,0,0,1,322.45,99.42Z"/><path class="cls-2" d="M65.35,325.47a5.13,5.13,0,0,1-1.94,1.67,5.35,5.35,0,0,1-2.44.54,8.23,8.23,0,0,1-2.7-.53,11.94,11.94,0,0,1-2.77-1.5l-.36-.26-3.44,4.8-3.5-2.51,10.18-14.21,4.1,2.93a13.2,13.2,0,0,1,2.29,2.06,7.24,7.24,0,0,1,1.36,2.25,4.87,4.87,0,0,1,.24,2.36A5.42,5.42,0,0,1,65.35,325.47ZM62,323.07c.94-1.3.48-2.63-1.38-4l-.62-.45-2.9,4,.58.41a4.27,4.27,0,0,0,2.51,1A2.21,2.21,0,0,0,62,323.07Z"/><path class="cls-2" d="M76.93,341.91l-5.87-3.21-2.57,2.46L64.6,339l14.1-12.22,4.15,2.27-2.68,18.46-3.89-2.13Zm-3.27-5.67,3.94,2.15,1.59-7.54Z"/><path class="cls-2" d="M105.93,345.18a4.94,4.94,0,0,1-2,2.52,6,6,0,0,1-3.27.88l2.91,8.48-5-1.89-2.32-7.39-.74-.28-2.17,5.67-4-1.54L95.6,335.3l5.2,2a12.71,12.71,0,0,1,2.7,1.4,7.65,7.65,0,0,1,1.89,1.82,4.74,4.74,0,0,1,.54,4.67Zm-3.9-1.41a1.91,1.91,0,0,0-.23-1.95,4.94,4.94,0,0,0-2.21-1.45l-1.15-.44-1.75,4.58,1,.38a4.7,4.7,0,0,0,2.77.33A2.25,2.25,0,0,0,102,343.77Z"/><path class="cls-2" d="M124.45,359.08l-6.52-1.51-1.82,3.05-4.32-1,10.31-15.55,4.61,1.08,2.37,18.5-4.33-1Zm-4.67-4.59,4.37,1-.5-7.69Z"/><path class="cls-2" d="M164.89,361.82a4.22,4.22,0,0,1-.6,2.08,4.35,4.35,0,0,1-1.55,1.49,7.67,7.67,0,0,1-2.39.89,13.55,13.55,0,0,1-3.07.23l-5.43-.17.55-17.48,6.27.2a9.45,9.45,0,0,1,2.52.39,6,6,0,0,1,1.85.93,3.94,3.94,0,0,1,1.13,1.33,3.27,3.27,0,0,1,.35,1.61,3.91,3.91,0,0,1-1,2.65,5.44,5.44,0,0,1-2.68,1.5,7,7,0,0,1,1.63.55,4.7,4.7,0,0,1,1.3.9,3.76,3.76,0,0,1,.84,1.26A3.9,3.9,0,0,1,164.89,361.82Zm-4.24-.47a1.69,1.69,0,0,0-.76-1.55,4.06,4.06,0,0,0-2.2-.58l-1.41-.05-.13,4.1,1.52.05a3.33,3.33,0,0,0,2.26-.54A1.91,1.91,0,0,0,160.65,361.35Zm-3-5.34a3,3,0,0,0,1.85-.46,1.71,1.71,0,0,0,.75-1.45,1.55,1.55,0,0,0-.57-1.34,2.81,2.81,0,0,0-1.71-.52l-1.46-.05-.12,3.78Z"/><path class="cls-2" d="M185.44,362l-6.67.64-.74,3.48-4.42.42,4.8-18,4.7-.45,8.17,16.78-4.42.42Zm-5.9-2.86,4.47-.43-2.93-7.13Z"/><path class="cls-2" d="M211.09,355.47a5.15,5.15,0,0,1,0,2.21,5.22,5.22,0,0,1-.91,2,6.37,6.37,0,0,1-1.79,1.61,8.52,8.52,0,0,1-2.64,1,13.91,13.91,0,0,1-2.89.33,12.1,12.1,0,0,1-2.81-.31l.12-3.39a13.79,13.79,0,0,0,2.19.3,9.55,9.55,0,0,0,2.51-.23,3.61,3.61,0,0,0,1.68-.8,1.42,1.42,0,0,0,.4-1.45,1.57,1.57,0,0,0-.87-1,7.79,7.79,0,0,0-2.44-.63,10,10,0,0,1-4.15-1.34,4.39,4.39,0,0,1-1.85-2.85,4.74,4.74,0,0,1,.77-4.16,7.2,7.2,0,0,1,4.2-2.31,12.42,12.42,0,0,1,2.87-.31,9.2,9.2,0,0,1,2.44.32v3.32a10.15,10.15,0,0,0-2.12-.27,9.06,9.06,0,0,0-2.25.23,3.21,3.21,0,0,0-1.45.66,1.15,1.15,0,0,0-.33,1.22,1.59,1.59,0,0,0,.24.59,1.39,1.39,0,0,0,.48.4,3.18,3.18,0,0,0,.86.29c.36.08.81.17,1.35.26.78.13,1.53.29,2.23.47a7.32,7.32,0,0,1,1.89.76,5,5,0,0,1,1.42,1.21A4.52,4.52,0,0,1,211.09,355.47Z"/><path class="cls-2" d="M226.12,337.73l4-1.46,3.8,10.52a6.19,6.19,0,0,1-.19,5.23,9.34,9.34,0,0,1-10.25,3.7,6.18,6.18,0,0,1-3.49-3.9l-3.8-10.52,4-1.47,3.84,10.65a3.11,3.11,0,1,0,5.83-2.11Z"/><path class="cls-2" d="M252.66,331.43a5,5,0,0,1,.55,3.18,6.05,6.05,0,0,1-1.52,3L260,341.1l-4.7,2.44-7.06-3.16-.7.37,2.8,5.38-3.82,2-8.07-15.51,4.93-2.56a12.39,12.39,0,0,1,2.84-1.1,7.66,7.66,0,0,1,2.61-.2,4.71,4.71,0,0,1,3.86,2.69Zm-3.64,2a1.92,1.92,0,0,0-1.62-1.13,4.89,4.89,0,0,0-2.54.69l-1.1.57,2.27,4.36.93-.49a4.63,4.63,0,0,0,2.08-1.85A2.2,2.2,0,0,0,249,333.42Z"/><path class="cls-2" d="M275.37,326.77l-5.46,3.88L271,334l-3.62,2.57-4.8-18,3.85-2.73,15.43,10.49-3.62,2.57Zm-6.53.46,3.66-2.6-6.09-4.73Z"/></g></g></svg>