<svg width="299" height="75" viewBox="0 0 299 75" fill="none" xmlns="http://www.w3.org/2000/svg">
<g clip-path="url(#clip0)">
<path d="M45.3655 37.1265C45.7588 36.875 46.1351 36.5978 46.4918 36.2965C47.9447 35.068 49.1457 33.5684 50.028 31.8808C50.8644 30.2745 51.4642 28.555 51.8085 26.7762C52.1423 25.1175 52.3142 23.4302 52.3219 21.7381C52.374 18.9482 51.8084 16.1815 50.6656 13.6371C49.452 11.1219 47.5729 8.98873 45.233 7.47012C42.4921 5.70852 39.4523 4.46511 36.2643 3.80146C33.8401 3.26847 31.3789 2.92163 28.9021 2.76395C29.6474 4.89708 29.2913 6.1836 27.2458 5.8433C10.9646 3.12085 11.6933 7.29582 9.85487 9.74436C8.52156 13.5458 5.30838 18.4014 10.7658 21.5222C17.8133 25.5478 -1.25877 20.6009 4.84462 34.6946C5.67276 36.7032 4.30633 36.7779 1.83847 35.674C1.83847 35.9396 1.83847 36.1886 1.7805 36.504C1.39956 41.1023 1.10143 44.8041 0.88611 47.7341C0.670794 50.664 0.505166 53.1209 0.380944 54.9801C0.256723 56.8393 0.157347 58.3001 0.0993768 59.3543C0.041407 60.4084 0 61.2633 0 61.8443C0 63.9691 0.140784 68.4844 0.82814 70.1444C2.3602 73.6969 8.3725 73.7467 11.0225 74.2945C14.1533 74.8372 17.3279 75.0845 20.5048 75.0332C25.5314 75.1416 30.5487 74.5466 35.4113 73.2653C39.0235 72.29 42.4031 70.5964 45.349 68.2852C47.819 66.3106 49.7151 63.708 50.8395 60.7487C51.8674 57.9189 52.3861 54.9288 52.3716 51.9173C52.4648 48.3348 51.6074 44.7918 49.8872 41.6501C48.7769 39.7903 47.2231 38.2359 45.3655 37.1265ZM32.0159 54.5568C31.8648 55.2798 31.5504 55.9584 31.0967 56.5405C30.548 57.1951 29.8567 57.7148 29.076 58.0594C27.865 58.538 26.5671 58.7558 25.2666 58.6985C23.9424 58.6829 22.6248 58.5102 21.3412 58.1839L22.1693 46.2068C22.6248 46.1487 23.072 46.0906 23.5109 46.0491C24.4384 45.9661 25.2251 45.9246 25.8463 45.9246C28.3307 45.9246 29.987 46.4641 30.8151 47.5847C31.8204 48.8764 32.3446 50.479 32.2975 52.1165C32.2893 52.9349 32.1949 53.75 32.0159 54.5485V54.5568ZM32.9848 26.5604C32.8296 27.0801 32.5445 27.5515 32.1567 27.93C31.6037 28.437 30.9485 28.8192 30.2354 29.0505C29.0263 29.4489 27.7556 29.626 26.4839 29.5734C25.4218 29.5619 24.3629 29.4535 23.3204 29.2497C23.4446 27.3406 23.544 25.5229 23.6186 23.8297C23.6848 22.3689 23.7511 21.0325 23.8256 19.8373L24.7034 19.7294C25.3881 19.6512 26.0764 19.6096 26.7655 19.6049C29.2499 19.6049 30.9973 20.1029 31.8503 21.0408C32.7709 22.0268 33.2703 23.3345 33.2415 24.6846C33.2381 25.3184 33.1518 25.9491 32.9848 26.5604Z" fill="white"/>
<path d="M161.33 68.9907C161.255 67.5019 161.056 66.0221 160.734 64.5668C160.361 62.6245 159.69 59.5867 158.754 55.5362C157.819 51.4858 156.518 46.1488 154.904 39.6C153.289 33.0512 151.227 24.6597 148.734 14.5585C148.403 13.1889 147.55 10.508 147.55 10.508C147.103 8.96335 146.55 7.45182 145.893 5.98442C145.119 4.56931 143.851 3.49047 142.332 2.95487C140.739 2.59229 139.102 2.46092 137.471 2.56476H128.577C127.55 2.51053 126.521 2.63694 125.538 2.93827C124.481 3.44808 123.635 4.31097 123.144 5.37851C122.016 7.45851 120.993 9.59437 120.08 11.7779C118.788 14.7411 117.347 18.2022 115.799 22.0618C114.25 25.9213 112.627 30.1212 110.971 34.4373C109.315 38.7533 107.791 43.0113 106.449 46.9871C105.108 50.9628 103.965 54.59 103.087 57.7773C102.329 60.1488 101.865 62.6046 101.704 65.0897C101.704 66.6501 101.538 68.7666 102.358 69.8954C103.011 70.8729 103.915 71.6557 104.975 72.1614C107.542 73.3815 111.509 73.3317 112.652 73.3317H117.621C118.542 73.3895 119.455 73.1295 120.208 72.5949C120.962 72.0604 121.51 71.2835 121.761 70.3935V70.3271L123.89 61.3878C123.716 61.1252 123.566 60.8474 123.443 60.5578C123.062 59.6853 122.949 58.7193 123.118 57.7823C123.286 56.8452 123.728 55.9795 124.388 55.2948C125.048 54.6101 125.897 54.1373 126.825 53.9365C127.754 53.7356 128.721 53.8158 129.604 54.1667C130.264 53.0012 131.28 52.0789 132.502 51.5356C135.674 50.1411 141.67 52.1581 141.985 55.6192C142.25 58.5907 135.923 58.8563 139.5 67.2892C139.518 67.3294 139.532 67.371 139.542 67.4137C139.746 67.8041 139.969 68.1836 140.212 68.5508C141.343 70.1846 142.935 71.4421 144.784 72.1614C147.087 73.001 149.531 73.3871 151.98 73.2985H156.759C158.109 73.2985 159.723 73.2985 160.502 72.676C161.438 71.9539 161.33 70.5512 161.33 68.9907ZM128.925 41.1355L132.502 28.0877L134.573 41.1355H128.925Z" fill="white"/>
<path d="M99.6832 56.4409L93.1492 47.0784C96.6091 45.0811 99.4189 42.1236 101.24 38.5624C102.438 36.1548 103.292 33.5896 103.774 30.9429C103.07 29.009 104.602 19.663 95.1864 18.0528C90.7145 17.2892 89.5385 12.583 90.2176 8.00134C89.5532 8.06397 88.8831 8.00776 88.2383 7.83533C86.9254 7.50447 85.7714 6.71904 84.9803 5.61787C84.1892 4.51669 83.8121 3.17068 83.9154 1.81774C82.6235 1.71814 81.2737 1.66003 79.841 1.66003C78.4083 1.66003 76.9591 1.70984 75.2779 1.80944C73.5968 1.90904 71.8494 2.00864 69.9613 2.13314C68.0731 2.25764 66.2181 2.36555 64.1643 2.46515C62.1105 2.56475 60.2058 2.59795 58.3176 2.59795C57.5501 2.60619 56.8092 2.88135 56.2216 3.3764C55.634 3.87145 55.2362 4.55566 55.0962 5.31209C54.7434 7.21339 54.5385 9.13928 54.4833 11.0724L53.9616 20.3685C53.7463 24.2862 53.3819 29.4489 52.8933 35.6989C52.6449 38.7035 52.4047 41.6667 52.1894 44.58C51.9741 47.4934 51.767 50.166 51.5849 52.6063C51.4027 55.0465 51.2536 57.1962 51.1542 58.9891C51.0548 60.7819 51.0134 62.1016 51.0134 62.8984C51.0134 66.2185 50.8064 69.5385 52.6697 71.3314C54.533 73.1242 58.6406 73.2985 62.7813 73.2985H67.4686C67.9642 73.3365 68.4619 73.2622 68.925 73.0811C69.388 72.9001 69.8045 72.617 70.1435 72.2527C70.6303 71.6335 70.919 70.8812 70.9716 70.0946V69.9618V69.8456C70.9716 69.8456 70.9716 69.4638 71.1455 67.7374C71.278 66.4426 71.4023 64.8241 71.5265 62.7573C71.6507 60.6906 71.808 58.5657 71.9985 56.0757C72.131 54.2607 72.2663 52.3821 72.4043 50.4399C73.0254 50.5146 73.6962 50.581 74.4084 50.6391C75.0543 53.2122 75.75 55.7188 76.4622 58.1092C77.2484 60.8234 78.3055 63.4512 79.6174 65.9529C80.7247 68.131 82.2046 70.0975 83.99 71.763C85.7833 73.3947 88.127 74.2844 90.5488 74.253C92.4761 74.2753 94.3909 73.9404 96.1968 73.2653C97.7154 72.7067 99.1461 71.9324 100.445 70.9661C101.529 70.1855 102.475 69.2289 103.244 68.1358C103.92 67.2821 104.321 66.2431 104.395 65.1561C104.295 63.804 103.812 62.5085 103.004 61.421C102.25 60.2922 101.141 58.6238 99.6832 56.4409ZM84.0479 28.76C83.8756 29.7489 83.5097 30.6939 82.9714 31.5405C82.4128 32.4042 81.6615 33.126 80.7768 33.6487C79.6583 34.2556 78.3949 34.5427 77.1247 34.4788C75.9382 34.4643 74.7551 34.3477 73.5885 34.1302C73.779 31.3413 73.9446 28.677 74.0689 26.1786C74.1848 23.9155 74.2925 21.8847 74.3918 20.0863L75.6423 19.9203C76.4705 19.8373 77.2986 19.7875 77.9694 19.7875C80.4538 19.7875 82.1764 20.2689 83.0045 21.1819C83.8326 22.095 84.3461 23.672 84.3461 25.7138C84.3345 26.7359 84.2348 27.7551 84.0479 28.76Z" fill="white"/>
<path d="M210.546 5.02158C208.795 4.10887 206.924 3.44672 204.99 3.05444C203.491 2.61594 201.959 2.29951 200.41 2.10823C199.01 2.00863 197.992 1.95883 197.313 1.95883C195.275 1.95883 194.058 2.25763 193.23 2.96314C192.314 3.87856 191.704 5.05578 191.483 6.333C189.893 12.7241 188.534 18.2188 187.458 22.676C186.381 27.1331 185.387 30.9761 184.477 34.4455C183.566 37.915 182.605 41.343 181.669 44.6464C181.412 45.576 181.131 46.5471 180.841 47.5597C180.121 43.169 179.516 39.4007 179.019 36.2965C178.208 31.2002 177.57 27.1525 177.106 24.1534C176.642 21.1819 176.278 18.9409 176.129 17.5133C175.98 16.0857 175.748 14.741 175.557 13.6537C175.368 12.1465 175.001 10.6671 174.464 9.24634C173.885 7.74402 173.056 5.74369 171.864 4.61487C170.626 3.54196 169.149 2.78203 167.558 2.39873C165.744 1.83432 163.152 1.87583 160.427 1.87583C158.497 1.78517 156.564 1.99232 154.697 2.49003C152.096 3.39475 151.815 5.23738 151.815 5.98439C151.942 7.61666 152.22 9.2337 152.643 10.8151C153.14 13.2055 153.877 16.5422 154.895 21.0325C155.914 25.5229 157.173 30.9927 158.688 37.4668C160.204 43.9409 162.034 51.8177 164.137 60.591C164.46 61.9605 164.858 63.3383 165.313 64.6663C165.939 66.7285 166.685 68.7517 167.549 70.7254C167.719 71.0188 167.951 71.2711 168.228 71.4641C170.647 70.244 178.994 69.3476 182.506 61.504C185.454 54.9469 193.18 53.4113 197.048 55.6939C197.329 55.0299 197.603 54.3576 197.876 53.6604C199.441 49.8257 201.039 45.7171 202.629 41.4426C204.219 37.168 205.694 32.9847 207.002 28.9924C208.31 25 209.42 21.4475 210.265 18.3267C210.978 15.7884 211.558 13.2147 212.004 10.6159C212.443 7.82702 212.832 6.4243 210.546 5.02158Z" fill="white"/>
<path d="M283.092 52.7391C281.276 52.692 279.472 53.0462 277.808 53.7766C276.393 54.4283 275.164 55.424 274.23 56.6733C273.377 57.8502 272.755 59.18 272.4 60.591C272.169 61.4838 272.014 62.3945 271.937 63.3134C272.845 63.0404 273.788 62.9006 274.736 62.8984C280.367 62.8984 285.013 67.588 285.8 73.6886C286.176 73.5367 286.541 73.3592 286.893 73.1574C288.307 72.3481 289.506 71.2093 290.387 69.8373C291.174 68.6111 291.735 67.2533 292.044 65.8284C292.306 64.6088 292.445 63.3658 292.458 62.1182C292.583 59.6744 291.802 57.2705 290.263 55.3702C288.723 53.6189 286.313 52.7391 283.092 52.7391Z" fill="#FFA400"/>
<path d="M296.126 2.55645C294.255 0.830023 291.398 1.00452e-05 287.365 1.00452e-05H281.841C280.781 -0.10678 279.722 0.209322 278.893 0.879824C278.205 1.56874 277.916 2.59795 277.824 4.63978C277.515 9.26572 277.239 13.2332 276.996 16.5422C276.748 19.8622 276.524 22.676 276.342 25.0249C276.16 27.3738 276.011 29.3327 275.911 30.835C275.812 32.3373 275.729 33.5657 275.638 34.5286C275.547 35.4914 275.481 36.4293 275.448 37.1099C275.415 37.7905 275.398 38.4462 275.398 39.0355C275.384 40.499 275.506 41.9606 275.762 43.4014C275.987 44.7406 276.504 46.0133 277.278 47.1282C278.105 48.2756 279.26 49.144 280.59 49.6182C282.055 50.1211 283.598 50.3572 285.145 50.3154H288.516C289.533 50.3818 290.539 50.0618 291.331 49.419C292.047 48.7145 292.493 47.7802 292.59 46.7796L293.716 41.1521C294.147 38.9387 294.6 36.6368 295.075 34.2464C295.538 31.8393 296.01 29.3908 296.482 26.9173C296.954 24.4439 297.377 22.0369 297.75 19.7875C298.122 17.5382 298.429 15.4383 298.652 13.5458C298.857 11.9878 298.974 10.4193 299 8.84795C299.004 7.65327 298.749 6.47195 298.253 5.38567C297.757 4.2994 297.031 3.33407 296.126 2.55645Z" fill="#FFA400"/>
<path d="M267.82 19.8705C266.925 16.2839 265.251 12.9396 262.918 10.0764C260.564 7.2906 257.544 5.14878 254.14 3.85126C250.163 2.39568 245.95 1.69483 241.717 1.78452C234.935 1.78452 229.138 2.97974 224.5 5.33698C220.059 7.53092 216.202 10.7513 213.246 14.7327C210.386 18.6741 208.345 23.1504 207.242 27.8967C206.077 32.7402 205.49 37.7053 205.495 42.6876C205.465 46.7544 205.895 50.8114 206.778 54.7809C207.594 58.4794 209.189 61.9603 211.457 64.99C213.809 68.0137 216.874 70.4039 220.376 71.9455C224.028 73.6056 228.658 74.4356 234.107 74.4356C238.489 74.5205 242.852 73.8264 246.993 72.3855C250.446 71.134 253.651 69.2794 256.458 66.9074C259.054 64.6766 261.247 62.015 262.943 59.0388C264.563 56.1926 265.862 53.175 266.818 50.0415C267.74 47.0291 268.391 43.9403 268.765 40.8117C269.104 38.0245 269.281 35.2199 269.295 32.412C269.34 28.1855 268.845 23.9706 267.82 19.8705ZM247.241 40.0232C246.888 42.6226 246.223 45.1697 245.262 47.6096C244.399 49.8365 243.101 51.8683 241.444 53.5857C240.717 54.3131 239.847 54.8806 238.888 55.2522C237.93 55.6238 236.905 55.7912 235.879 55.7437C235.689 55.7437 235.498 55.7437 235.308 55.7437C234.827 57.3456 232.774 57.0883 228.683 53.5359C225.941 51.1537 222.811 54.1833 222.712 48.5558C222.662 45.8084 224.368 43.9741 226.985 43.3931C226.985 42.7623 226.943 42.1149 226.943 41.4426C226.943 40.239 227.001 38.8529 227.126 37.2925C227.255 35.712 227.493 34.1423 227.838 32.5946C228.183 30.993 228.666 29.424 229.279 27.905C229.838 26.504 230.612 25.199 231.573 24.0372C232.493 22.9389 233.636 22.0504 234.927 21.4309C236.418 20.7449 238.048 20.4126 239.689 20.4598C242.587 20.4598 244.5 21.406 245.693 23.4396C247.092 25.7304 247.779 29.0505 247.779 33.2005C247.746 35.484 247.566 37.7629 247.241 40.0232Z" fill="white"/>
</g>
<defs>
<clipPath id="clip0">
<rect width="299" height="75" fill="white"/>
</clipPath>
</defs>
</svg>
