<svg xmlns="http://www.w3.org/2000/svg" viewBox="0 0 361.05 90.36"><defs><style>.cls-1{fill:#fff;}.cls-2{fill:#ffa400;}</style></defs><title>Asset 1</title><g id="Layer_2" data-name="Layer 2"><g id="Layer_1-2" data-name="Layer 1"><path class="cls-1" d="M54.78,44.73a12.76,12.76,0,0,0,1.36-1,17.72,17.72,0,0,0,4.27-5.32,22.59,22.59,0,0,0,2.15-6.15,31.42,31.42,0,0,0,.62-6.07,22.74,22.74,0,0,0-2-9.76A18.39,18.39,0,0,0,54.62,9,32.19,32.19,0,0,0,43.79,4.58,58.92,58.92,0,0,0,34.9,3.33c.9,2.57.47,4.12-2,3.71-19.66-3.28-18.78,1.75-21,4.7C10.29,16.32,6.41,22.17,13,25.93c8.51,4.85-14.52-1.11-7.15,15.87,1,2.42-.65,2.51-3.63,1.18,0,.32,0,.62-.07,1-.46,5.54-.82,10-1.08,13.53S.61,64,.46,66.24s-.27,4-.34,5.27-.12,2.3-.12,3c0,2.56.17,8,1,10,1.85,4.28,9.11,4.34,12.31,5a61.38,61.38,0,0,0,11.45.89,65.27,65.27,0,0,0,18-2.13,33.68,33.68,0,0,0,12-6,21.32,21.32,0,0,0,6.63-9.08,30.67,30.67,0,0,0,1.85-10.64,24.39,24.39,0,0,0-3-12.37A15.77,15.77,0,0,0,54.78,44.73Zm-16.12,21a5.82,5.82,0,0,1-1.11,2.39,6.73,6.73,0,0,1-2.44,1.83,11.2,11.2,0,0,1-4.6.77,20.25,20.25,0,0,1-4.74-.62l1-14.43c.55-.07,1.09-.14,1.62-.19,1.12-.1,2.07-.15,2.82-.15,3,0,5,.65,6,2A8.48,8.48,0,0,1,39,62.79,14,14,0,0,1,38.66,65.72ZM39.83,32a3.84,3.84,0,0,1-1,1.65A6.32,6.32,0,0,1,36.51,35a12.81,12.81,0,0,1-4.53.63,21.14,21.14,0,0,1-3.82-.39c.15-2.3.27-4.49.36-6.53.08-1.76.16-3.37.25-4.81l1.06-.13a23.4,23.4,0,0,1,2.49-.15c3,0,5.11.6,6.14,1.73a6.23,6.23,0,0,1,1.68,4.39A8.74,8.74,0,0,1,39.83,32Z"/><path class="cls-1" d="M194.81,83.12a32.07,32.07,0,0,0-.72-5.33c-.45-2.34-1.26-6-2.39-10.88S189,55.6,187.05,47.71s-4.44-18-7.45-30.17c-.4-1.65-1.43-4.88-1.43-4.88a41.64,41.64,0,0,0-2-5.45,7.89,7.89,0,0,0-4.3-3.65A20.61,20.61,0,0,0,166,3.09H155.26a10.64,10.64,0,0,0-3.67.45,6.09,6.09,0,0,0-2.89,2.94A84.6,84.6,0,0,0,145,14.19c-1.56,3.57-3.3,7.74-5.17,12.39S136,36.29,134,41.49s-3.84,10.33-5.46,15.12-3,9.16-4.06,13a36.65,36.65,0,0,0-1.67,8.81c0,1.88-.2,4.43.79,5.79a7.88,7.88,0,0,0,3.16,2.73c3.1,1.47,7.89,1.41,9.27,1.41h6a4.88,4.88,0,0,0,5-3.54l0-.08,2.57-10.77a6.31,6.31,0,0,1-.54-1,5.79,5.79,0,0,1,7.44-7.7A7.54,7.54,0,0,1,160,62.09c3.83-1.68,11.07.75,11.45,4.92.32,3.58-7.32,3.9-3,14.06a.88.88,0,0,1,.05.15,15.42,15.42,0,0,0,.81,1.37,12,12,0,0,0,5.52,4.35,23,23,0,0,0,8.69,1.37h5.77c1.63,0,3.58,0,4.52-.75C194.94,86.69,194.81,85,194.81,83.12ZM155.68,49.56,160,33.84l2.5,15.72Z"/><path class="cls-1" d="M120.37,68l-7.89-11.28a25,25,0,0,0,9.77-10.26,34.44,34.44,0,0,0,3.06-9.18c-.85-2.33,1-13.59-10.37-15.53-5.4-.92-6.82-6.59-6-12.11a6.8,6.8,0,0,1-2.39-.2,6.93,6.93,0,0,1-5.22-7.25C99.77,2.07,98.14,2,96.41,2s-3.48.06-5.51.18-4.14.24-6.42.39-4.52.28-7,.4-4.78.16-7.06.16A4,4,0,0,0,66.53,6.4a45,45,0,0,0-.74,6.94l-.63,11.2c-.26,4.72-.7,10.94-1.29,18.47-.3,3.62-.59,7.19-.85,10.7s-.51,6.73-.73,9.67-.4,5.53-.52,7.69-.17,3.75-.17,4.71c0,4-.25,8,2,10.16s7.21,2.37,12.21,2.37h5.66a4,4,0,0,0,3.23-1.26,4.71,4.71,0,0,0,1-2.6l0-.16v-.14s0-.46.21-2.54c.16-1.56.31-3.51.46-6s.34-5.05.57-8.05q.24-3.28.49-6.79c.75.09,1.56.17,2.42.24.78,3.1,1.62,6.12,2.48,9a50.69,50.69,0,0,0,3.81,9.45,25.18,25.18,0,0,0,5.28,7,11.56,11.56,0,0,0,7.92,3,18.89,18.89,0,0,0,6.82-1.19,20.4,20.4,0,0,0,5.13-2.77,14.47,14.47,0,0,0,3.38-3.41,6.49,6.49,0,0,0,1.39-3.59A8.61,8.61,0,0,0,124.38,74C123.47,72.64,122.13,70.63,120.37,68ZM101.49,34.65a9.17,9.17,0,0,1-1.3,3.35,8,8,0,0,1-2.65,2.54,8.38,8.38,0,0,1-4.41,1,25,25,0,0,1-4.27-.42c.23-3.36.43-6.57.58-9.58q.21-4.09.39-7.34L91.34,24c1-.1,2-.16,2.81-.16,3,0,5.08.58,6.08,1.68s1.62,3,1.62,5.46A21.35,21.35,0,0,1,101.49,34.65Z"/><path class="cls-1" d="M254.24,6.05a25.51,25.51,0,0,0-6.71-2.37A35,35,0,0,0,242,2.54c-1.69-.12-2.92-.18-3.74-.18-2.46,0-3.93.36-4.93,1.21a7.56,7.56,0,0,0-2.11,4.06c-1.92,7.7-3.56,14.32-4.86,19.69s-2.5,10-3.6,14.18-2.26,8.31-3.39,12.29c-.31,1.12-.65,2.29-1,3.51-.87-5.29-1.6-9.83-2.2-13.57q-1.47-9.21-2.31-14.63c-.56-3.58-1-6.28-1.18-8s-.46-3.34-.69-4.65a23.2,23.2,0,0,0-1.32-5.31c-.7-1.81-1.7-4.22-3.14-5.58a12.37,12.37,0,0,0-5.2-2.67c-2.19-.68-5.32-.63-8.61-.63A22.78,22.78,0,0,0,186.8,3c-3.14,1.09-3.48,3.31-3.48,4.21a32.16,32.16,0,0,0,1,5.82c.6,2.88,1.49,6.9,2.72,12.31s2.75,12,4.58,19.8S195.66,62.43,198.2,73c.39,1.65.87,3.31,1.42,4.91a65.82,65.82,0,0,0,2.7,7.3,2.77,2.77,0,0,0,.82.89c2.92-1.47,13-2.55,17.24-12,3.56-7.9,12.89-9.75,17.56-7,.34-.8.67-1.61,1-2.45,1.89-4.62,3.82-9.57,5.74-14.72s3.7-10.19,5.28-15,2.92-9.09,3.94-12.85A91.5,91.5,0,0,0,256,12.79C256.53,9.43,257,7.74,254.24,6.05Z"/><path class="cls-2" d="M341.84,63.54a14.94,14.94,0,0,0-6.38,1.25,11.28,11.28,0,0,0-4.32,3.49A13.74,13.74,0,0,0,328.93,73a19.71,19.71,0,0,0-.56,3.28,11.86,11.86,0,0,1,3.38-.5c6.8,0,12.41,5.65,13.36,13a10.75,10.75,0,0,0,1.32-.64,12.24,12.24,0,0,0,4.22-4,14.68,14.68,0,0,0,2-4.83,22.31,22.31,0,0,0,.5-4.47,11.93,11.93,0,0,0-2.65-8.13C348.64,64.6,345.73,63.54,341.84,63.54Z"/><path class="cls-2" d="M357.58,3.08C355.32,1,351.87,0,347,0h-6.67a4.89,4.89,0,0,0-3.56,1.06c-.83.83-1.18,2.07-1.29,4.53q-.56,8.36-1,14.34c-.3,4-.57,7.39-.79,10.22s-.4,5.19-.52,7-.22,3.29-.33,4.45-.19,2.29-.23,3.11-.06,1.61-.06,2.32a28.48,28.48,0,0,0,.44,5.26,11.08,11.08,0,0,0,1.83,4.49,8.41,8.41,0,0,0,4,3,15.67,15.67,0,0,0,5.5.84h4.07a4.9,4.9,0,0,0,3.4-1.08,5.16,5.16,0,0,0,1.52-3.18l1.36-6.78q.78-4,1.64-8.32c.56-2.9,1.13-5.85,1.7-8.83s1.08-5.88,1.53-8.59.82-5.24,1.09-7.52a49.64,49.64,0,0,0,.42-5.66A9.94,9.94,0,0,0,357.58,3.08Z"/><path class="cls-1" d="M323.4,23.94a30.26,30.26,0,0,0-5.92-11.8,26,26,0,0,0-10.6-7.5,41.19,41.19,0,0,0-15-2.49c-8.19,0-15.19,1.44-20.79,4.28a37.73,37.73,0,0,0-13.59,11.32,43.89,43.89,0,0,0-7.25,15.86,75.74,75.74,0,0,0-2.11,17.82A64.77,64.77,0,0,0,249.69,66a32,32,0,0,0,5.65,12.3,27.86,27.86,0,0,0,10.77,8.38c4.41,2,10,3,16.58,3a44.8,44.8,0,0,0,15.56-2.47,37.54,37.54,0,0,0,11.43-6.6,36,36,0,0,0,7.83-9.48,53.39,53.39,0,0,0,4.68-10.84,63.76,63.76,0,0,0,2.35-11.12,87,87,0,0,0,.64-10.12A59.54,59.54,0,0,0,323.4,23.94ZM298.55,48.22a39.32,39.32,0,0,1-2.39,9.14,21.61,21.61,0,0,1-4.61,7.2,8.93,8.93,0,0,1-6.72,2.6c-.23,0-.46,0-.69,0-.58,1.93-3.06,1.62-8-2.66-3.31-2.87-7.09.78-7.21-6-.06-3.31,2-5.52,5.16-6.22h0c0-.76-.05-1.54-.05-2.35,0-1.45.07-3.12.22-5a41.61,41.61,0,0,1,.86-5.66,34.51,34.51,0,0,1,1.74-5.65,17.47,17.47,0,0,1,2.77-4.66,12.13,12.13,0,0,1,4.05-3.14,12.9,12.9,0,0,1,5.75-1.17c3.5,0,5.81,1.14,7.25,3.59C298.37,31,299.2,35,299.2,40A64.28,64.28,0,0,1,298.55,48.22Z"/></g></g></svg>