<svg width="17" height="39" viewBox="0 0 17 39" fill="none" xmlns="http://www.w3.org/2000/svg">
<g clip-path="url(#clip0)">
<path d="M15.5892 14.3419C15.9595 12.5806 16.1711 10.7834 16.3651 8.98616C16.6296 6.50598 16.8413 4.02579 17 1.54561C17.0705 0.485239 15.4481 0.575101 15.3776 1.63547C15.2541 3.55851 15.0954 5.46358 14.9014 7.36865C14.7603 8.86035 14.584 10.3521 14.3724 11.8438C14.2666 12.5627 14.3547 14.3599 13.7904 14.8631C13.5435 15.0968 12.168 15.1327 11.639 15.0249C11.3745 14.971 11.1099 14.935 10.8454 14.8811C11.3039 11.4484 11.6213 8.01565 11.7801 4.54699C11.833 3.48662 10.2106 3.57648 10.1576 4.63685C9.99893 7.97971 9.08192 11.1968 8.64105 14.5037C8.44707 14.4677 8.83503 14.5396 8.64105 14.5037C7.84748 14.3779 7.33607 14.306 6.47196 14.2161C6.63068 10.9811 6.4896 7.71012 6.87756 4.49307C7.00101 3.45068 5.41387 3.07326 5.29043 4.13363C4.90246 7.40459 4.65557 10.6756 4.49686 13.9465C3.93254 13.8387 3.36823 13.7129 2.85682 13.5332C1.34022 12.994 1.76346 10.6216 1.76346 10.6216C1.834 9.50736 1.90454 8.41105 1.97508 7.29676C2.11615 5.10413 2.2396 2.92948 2.39831 0.736852C2.46885 -0.305544 0.846445 -0.215682 0.775905 0.826714C0.581922 3.54054 0.423208 6.25436 0.264494 8.96819C0.158685 10.6216 -0.546709 13.3534 0.969889 14.6295C1.76346 15.2945 3.15661 15.2585 4.10889 15.4203C4.90246 15.564 5.71366 15.6898 6.50723 15.8336C5.62549 23.4 4.14416 30.7507 1.90454 38.0475C1.60474 39.0359 3.08607 39.3954 3.4564 38.4788C3.70329 38.4069 3.91491 38.2272 4.02072 37.9216C6.31325 31.1281 7.90039 24.1189 8.74686 16.9839C8.79976 16.5885 8.58815 16.2829 8.32362 16.1212C9.13483 16.265 9.96366 16.3908 10.7749 16.5345C11.7095 16.6963 13.1203 17.2894 14.0902 17.0378C15.1836 16.7682 15.3599 15.3304 15.5892 14.3419Z" fill="white"/>
</g>
<defs>
<clipPath id="clip0">
<rect width="17" height="39" fill="white"/>
</clipPath>
</defs>
</svg>
