<svg width="29" height="25" viewBox="0 0 29 25" fill="none" xmlns="http://www.w3.org/2000/svg">
<g clip-path="url(#clip0)">
<path d="M26.2663 10.9642C25.6538 10.8504 25.2265 9.10128 22.4347 12.9266C22.1356 12.6138 23.8164 10.5802 23.4888 10.3527C23.4318 8.43291 23.0614 5.61721 22.0074 3.85384C21.9504 3.71163 21.9077 3.56943 21.8365 3.42722C21.281 2.13314 20.1985 0.568858 18.6317 0.739507C17.891 0.824831 17.4779 1.25145 16.9082 1.67807C14.8144 3.28501 13.5467 1.64963 11.7805 0.711065C10.0998 -0.184839 7.83502 -0.312825 6.197 0.782169C4.31685 2.04781 4.11743 4.15248 4.2029 6.24292C4.28836 8.19116 4.10319 9.01595 2.89248 10.5518C2.3085 11.3055 1.8527 11.8459 1.71026 12.8413C1.63905 13.3106 1.65329 13.7514 1.72451 14.1638C0.5138 15.1593 -0.070188 16.7236 0.0152737 18.2879C0.228928 22.3692 4.90083 24.9858 8.66115 24.6161C8.80358 24.6018 8.73237 22.0706 8.86056 22.0421C9.80064 22.4972 8.44749 26.3937 12.6921 24.4739C13.4612 24.1183 14.1307 23.6917 14.672 23.1371C15.5266 23.1513 16.3812 23.1371 17.2358 23.0802C18.5889 22.9949 19.9991 22.938 21.1243 22.355C23.6027 23.5353 26.5084 23.9761 28.0752 21.5302C29.4996 19.2975 29.5708 11.5899 26.2663 10.9642ZM11.4671 5.38968C11.5811 5.11948 11.695 5.01994 11.7947 5.0626C11.6808 5.16215 11.5811 5.27591 11.4671 5.38968ZM8.86056 7.45168C8.83207 7.4659 4.63021 14.3772 4.61596 14.3914C4.48777 13.9363 8.11989 5.4039 8.04867 5.34701C8.16262 5.44656 10.2849 4.59332 10.4131 4.6502C10.3989 4.84929 8.86056 7.25259 8.86056 7.45168ZM17.3498 4.86351C17.307 5.38968 18.3895 7.84986 18.4038 8.43291C18.3468 8.2907 17.9907 8.10583 17.5064 7.90674C16.196 7.38057 16.1106 5.57455 17.3498 4.86351ZM16.253 20.421C16.2672 20.3641 16.2957 20.293 16.31 20.2361C16.3385 20.2219 17.0506 19.326 17.0934 19.3117C19.059 19.2264 26.7363 19.5393 21.2098 20.165C20.9676 20.165 16.4809 20.421 16.253 20.421Z" fill="white"/>
</g>
<defs>
<clipPath id="clip0">
<rect width="29" height="25" fill="white"/>
</clipPath>
</defs>
</svg>
