<svg width="18" height="24" viewBox="0 0 18 24" fill="none" xmlns="http://www.w3.org/2000/svg">
<g clip-path="url(#clip0)">
<path d="M17.9584 14.3838C17.9261 14.0665 18.0339 13.4424 17.7536 13.2732C16.2123 12.3636 16.4926 16.5733 11.8039 14.1829C10.6399 13.5905 9.18477 11.1154 9.89614 9.21151C10.3381 8.01627 11.7608 7.78357 11.4806 7.022C11.4806 7.022 11.3189 6.58833 10.1872 6.14408L8.25782 5.81618C7.93447 4.90653 7.57878 4.00746 7.27698 3.48917C6.50093 2.12469 6.10213 1.19388 4.71171 0.421736C4.28057 0.189035 3.67698 -0.0330895 3.19195 -0.00135742C3.07339 0.00921993 2.57758 0.220767 2.21111 0.855408C1.84465 1.46889 1.82309 2.3045 2.64225 2.65356C3.93566 3.21416 4.79794 3.34108 5.6171 4.09208C6.28536 4.69498 6.7165 5.24501 7.0183 5.78445C3.74165 5.86907 2.5668 7.37105 1.34884 9.37017C-0.00924707 11.5914 -0.192481 14.3309 0.163208 16.8907C0.400334 18.583 0.896142 20.3071 2.07099 21.5658C3.82788 23.438 5.42309 24.39 7.95602 23.8506C11.1572 23.1736 12.3213 23.7554 13.6255 23.6073C15.4902 23.4063 17.2794 20.7514 17.6027 18.9427C17.7967 17.8109 18.1201 16.0551 17.9584 14.3838Z" fill="white"/>
</g>
<defs>
<clipPath id="clip0">
<rect width="18" height="24" fill="white"/>
</clipPath>
</defs>
</svg>
