<svg width="1440" height="256" viewBox="0 0 1440 256" fill="none" xmlns="http://www.w3.org/2000/svg">
<g clip-path="url(#clip0)">
<path d="M853.882 127.908C854.061 127.285 854.732 126.187 854.34 125.659C852.169 122.796 849.514 130.954 842.625 122.955C840.914 120.971 840.083 115.216 842.838 112.149C844.558 110.22 847.371 110.838 847.425 109.192C847.425 109.192 847.453 108.253 845.69 106.573L842.361 104.52C842.447 102.562 842.466 100.599 842.297 99.3964C841.888 96.2429 841.85 94.1888 839.855 91.6973C839.232 90.9375 838.28 90.0694 837.357 89.7689C837.129 89.7008 836.051 89.7318 834.893 90.6579C833.751 91.5441 833.081 93.106 834.336 94.374C836.311 96.3938 837.814 97.2744 838.766 99.3013C839.55 100.937 839.935 102.296 840.087 103.539C833.95 101.263 830.64 103.226 826.875 106.096C822.683 109.282 820.277 114.319 819.007 119.417C818.17 122.789 817.789 126.414 819.018 129.664C820.863 134.505 823.102 137.488 828.204 138.352C834.648 139.453 836.367 141.416 838.896 142.106C842.504 143.112 847.822 139.428 849.785 136.253C850.998 134.26 852.921 131.184 853.882 127.908Z" fill="#009D4F"/>
</g>
<path d="M972.328 166.261C973.606 159.286 970.551 155.585 968.316 153.481C966.073 151.403 963.396 150.163 960.871 148.698C960.584 148.522 960.288 148.372 960.022 148.206C961.951 148.581 963.88 148.593 965.653 148.042C967.596 147.426 969.552 145.97 970.168 143.499C970.771 140.992 969.276 140.141 967.633 139.215C962.791 136.543 957.801 134.309 953.238 130.961C950.228 128.735 948.543 125.67 947.21 122.148C947.224 121.671 947.225 121.157 947.196 120.658C947.094 118.186 946.844 113.883 945.996 111.637C945.595 110.556 944.599 109.475 943.489 108.729C944.159 107.193 944.963 105.484 945.089 103.944C945.123 103.478 944.98 102.951 944.668 102.702C943.678 101.896 942.412 101.464 941.313 100.906C939.961 100.218 938.629 99.5416 937.277 98.8542C936.326 98.3709 935.532 99.5409 935.801 100.646C936.472 103.196 937.859 105.534 939.217 107.738C938.27 107.68 937.309 108.25 936.629 109.085C935.807 110.119 935.334 111.513 934.857 112.844C933.44 116.874 931.891 120.928 929.377 124.098C926.894 127.254 923.286 129.414 919.738 128.7C917.372 128.223 915.256 126.573 912.971 125.714C910.664 124.844 907.761 125.003 906.373 127.414C906.131 127.835 905.947 128.377 906.069 128.893C906.138 129.201 906.327 129.448 906.494 129.684C909.924 134.181 914.542 137.072 919.273 139.266C922.288 140.677 925.488 141.396 928.701 141.274C932.446 141.119 935.68 139.767 938.171 138.341C936.811 134.17 935.956 129.681 936.744 125.755C936.91 124.901 938.038 125.081 937.851 125.924C936.589 132.272 939.81 140.082 942.24 145.553C942.298 145.673 942.314 145.772 942.309 145.86C944.44 149.727 947.24 153.086 950.334 155.869C955.365 160.393 959.617 163.341 965.509 165.912C966.423 166.286 972 168.031 972.328 166.261ZM941.905 106.169C941.809 106.453 941.683 106.752 941.586 107.036C940.738 105.666 939.835 104.239 939.102 102.747C939.377 102.887 939.631 103.016 939.905 103.155C940.708 103.564 941.775 103.924 942.645 104.427C942.414 105.036 942.081 105.653 941.905 106.169ZM947.426 131.002C947.132 129.824 947.016 128.706 946.985 127.631C947.227 128.087 947.477 128.517 947.757 128.932C950.322 132.837 954.508 135.177 958.175 137.222C959.987 138.234 961.835 139.142 963.652 140.066C964.687 140.592 965.714 141.145 966.762 141.707C967.43 142.077 968.033 142.051 967.887 143.066C967.786 143.801 966.84 144.47 966.366 144.774C962.47 147.272 956.701 144.703 952.847 142.26C951.802 141.033 950.843 139.698 950.059 138.211C948.875 136.005 948.055 133.531 947.426 131.002Z" fill="#009D4F"/>
<g clip-path="url(#clip1)">
<path d="M763.832 46.5059C761.45 45.3107 758.548 44.3607 755.861 43.9623C754.945 43.8397 754.028 44.1768 753.754 45.1575C753.54 45.9543 754.028 47.1188 754.945 47.272C755.189 47.3026 755.433 47.3639 755.678 47.4252C755.708 47.4559 755.769 47.4865 755.8 47.5172C758.793 48.8962 754.181 50.8268 752.776 51.1333C751.646 51.3785 750.425 51.4091 749.295 51.501C747.34 51.6543 745.386 51.7768 743.431 51.8381C738.453 51.7155 733.475 51.1946 728.589 50.2139C727.703 50.0301 726.115 50.0301 726.665 48.3139C726.909 47.5478 729.23 47.0881 729.902 46.9043C731.948 46.4139 734.025 46.0768 736.102 45.8623C740.072 45.4333 744.042 45.4026 748.043 45.5252C750.241 45.5865 750.241 42.1849 748.043 42.1236C742.24 41.8785 736.346 42.0623 730.635 43.1962C727.184 43.901 722.053 45.3107 723.153 50.0607C723.519 51.6236 724.741 52.6043 726.268 53.2478C726.268 53.3091 726.268 53.3397 726.268 53.3704C727.276 64.4639 727.062 75.6801 728.528 86.743C728.986 90.1752 729.841 93.6075 732.528 95.9672C735.888 98.9397 739.858 98.3268 743.981 98.4188C747.646 98.4801 752.44 99.8897 755.861 98.143C759.709 96.1817 760.197 89.3478 760.717 85.6397C762.274 74.5768 760.93 63.2688 763.16 52.2672C763.19 52.0833 763.19 51.8994 763.19 51.7155C764.259 51.4704 765.236 51.0414 765.725 50.1526C766.611 48.5285 765.145 47.1801 763.832 46.5059ZM763.038 48.1914L763.068 48.1607C763.251 48.1607 763.129 48.1914 763.038 48.1914ZM744.836 59.9897C744.836 60.0204 744.836 60.051 744.836 60.051C744.836 60.0204 744.836 60.0204 744.836 59.9897ZM757.113 73.6881C757.143 73.6575 758.151 73.7801 758.182 73.7494C758.151 74.5768 757.052 85.2414 757.052 85.1188C757.021 84.5059 757.143 74.301 757.113 73.6881ZM759.556 53.0026C759.587 53.0026 759.587 53.0026 759.556 53.0026V53.0333C759.556 53.0333 759.556 53.0333 759.556 53.0026ZM762.854 49.9075L762.824 49.8768C762.854 49.9075 762.854 49.9075 762.854 49.9075ZM762.702 49.8155C762.732 49.8155 762.732 49.8155 762.702 49.8155C762.732 49.8462 762.732 49.8462 762.732 49.8462C762.763 49.8768 762.793 49.9075 762.824 49.9381C762.824 49.9075 762.732 49.8768 762.702 49.8155ZM729.749 54.1059C731.185 54.3204 732.651 54.4123 733.872 54.5043C733.842 54.5349 733.842 54.5655 733.811 54.5962C732.864 54.443 731.765 54.9946 731.734 56.2204C731.49 63.0236 731.246 69.8881 731.704 76.6914C731.582 79.4494 731.582 82.1768 731.704 84.9349C731.643 84.1381 731.582 83.3414 731.521 82.6059C730.635 73.0752 730.543 63.5752 729.749 54.1059Z" fill="#009D4F"/>
</g>
<g clip-path="url(#clip2)">
<path d="M448.534 128.307C440.271 118.528 431.987 108.766 423.724 98.987C422.273 100.196 420.111 100.459 418.409 99.6438C418.204 100.986 417.996 102.368 417.234 103.48C416.472 104.591 414.964 105.335 413.737 104.783C413.201 104.534 412.762 104.093 412.218 103.924C410.188 103.199 408.828 106.017 408.532 108.132C408.254 110.268 407.132 113.108 405.018 112.635C403.805 112.365 402.395 110.975 401.586 111.942C402.697 113.104 401.698 115.475 400.081 115.468C399.501 115.475 398.943 115.244 398.388 115.194C395.528 115.014 394.818 119.012 393.368 121.502C391.995 123.819 389.135 125.14 386.503 124.66L385.461 125.125C386.013 128.218 387.378 130.524 389.164 132.588C396.989 130.718 403.947 122.465 408.678 116.471C409.4 115.576 410.864 116.59 410.142 117.485C405.277 123.627 398.46 131.653 390.526 134.053C392.961 136.456 395.918 138.607 398.636 141.396C404.349 147.221 409.479 156.314 413.579 163.373C414.405 164.809 415.648 166.483 417.273 166.191C417.983 166.076 418.546 165.607 419.069 165.134C425.463 159.732 431.836 154.347 438.212 148.923C443.156 144.73 448.399 140.104 449.961 133.821C450.218 132.764 450.361 131.656 450.035 130.645C449.76 129.739 449.149 129.003 448.534 128.307ZM433.146 133.11C433.731 139.288 428.956 144.258 423.235 145.838C414.217 148.299 407.643 138.834 407.003 130.87C406.908 129.74 408.656 129.419 408.769 130.57C409.455 138.899 416.704 147.765 425.604 142.912C429.643 140.717 432.093 136.917 431.249 132.237C430.746 129.469 429.254 126.391 427.219 124.424C422.731 120.033 412.197 120.534 409.925 127.153C409.545 128.239 407.881 127.647 408.244 126.539C410.751 119.102 421.99 117.904 427.63 122.36C430.68 124.8 432.8 129.296 433.146 133.11ZM420.551 138.588C422.363 138.874 424.053 136.586 424.931 135.304C425.925 133.854 426.429 132.298 426.032 130.541C425.797 129.419 427.541 129.137 427.798 130.241C428.348 132.713 427.461 134.954 425.962 136.9C424.579 138.675 422.849 140.739 420.386 140.375C419.262 140.212 419.406 138.444 420.551 138.588Z" fill="#009D4F"/>
</g>
<g clip-path="url(#clip3)">
<path d="M1075.24 218.247C1074.73 217.712 1075.43 216.782 1075.98 217.323C1077.85 219.208 1079.91 220.753 1082.22 222.001C1082.28 221.919 1082.34 221.815 1082.41 221.733L1085.25 221.462C1088.69 218.559 1086.35 219.533 1088.27 216.598C1088.86 215.818 1089.44 214.979 1090.02 214.105L1090.04 213.901C1091.49 211.693 1092.95 209.469 1094.39 207.24C1095.29 205.876 1096.18 204.491 1096.57 202.89C1096.93 201.304 1097.28 198.949 1096.08 197.812C1095.91 197.672 1094.05 196.628 1093.49 196.349C1091.56 195.351 1092.14 192.902 1093.06 190.942L1093.68 189.588C1094.26 188.43 1093.48 187.084 1092.35 186.445L1090.55 185.45C1089.94 185.085 1089.13 185.212 1088.69 185.792C1086.68 188.243 1086.26 191.616 1083.19 190.016C1082.18 189.489 1080.54 188.54 1079.22 188.488C1078.53 188.466 1077.87 188.785 1077.41 189.307C1073.77 193.392 1073.83 201.262 1072.35 207.564C1074.27 209.251 1076.42 210.641 1078.77 211.691C1079.47 211.996 1079 213.077 1078.3 212.773C1076.02 211.735 1073.91 210.445 1072.02 208.837C1070.26 215.053 1066.52 219.235 1055.12 215.542C1053.11 214.888 1051.02 218.335 1050.01 220.523C1048.12 224.566 1050.76 229.22 1053.31 232.941C1054.92 235.327 1055.89 237.248 1058.75 237.542C1060.86 237.765 1063.87 237.277 1065.61 236.054C1071.37 231.988 1077.21 228.458 1081.49 222.945C1079.19 221.698 1077.08 220.147 1075.24 218.247Z" fill="#009D4F"/>
</g>
<path d="M398.088 190.624C396.838 190.952 395.008 188.052 391.8 197.682C391.042 197.36 393.128 192.067 392.364 191.93C391.153 188.384 388.823 183.437 385.773 181.064C385.581 180.848 385.417 180.619 385.198 180.415C383.381 178.482 380.39 176.507 377.457 178.21C376.073 179.023 375.518 180.187 374.66 181.489C371.531 186.347 368.141 184.403 364.186 184.204C360.42 184.009 355.965 185.768 353.424 189.266C350.512 193.296 351.332 197.415 352.696 201.255C353.978 204.829 354.092 206.538 352.63 210.483C351.932 212.411 351.36 213.825 351.655 215.816C351.786 216.758 352.067 217.571 352.441 218.281C350.669 221.214 350.436 224.66 351.498 227.515C354.25 234.972 364.789 235.749 371.852 231.738C372.119 231.585 370.531 226.906 370.762 226.74C372.842 226.763 372.457 235.256 379.569 227.913C380.853 226.568 381.904 225.178 382.633 223.661C384.295 222.934 385.94 222.153 387.561 221.292C390.13 219.937 392.826 218.586 394.668 216.501C400.14 216.524 406.014 214.785 407.643 208.82C409.12 203.381 404.84 188.879 398.088 190.624ZM366.261 193.245C366.327 192.638 366.49 192.351 366.707 192.343C366.544 192.63 366.416 192.931 366.261 193.245ZM362.4 199.408C362.353 199.46 358.185 216.116 358.165 216.155C357.656 215.415 359.793 196.226 359.623 196.182C359.9 196.268 363.517 192.796 363.798 192.79C363.884 193.175 362.286 199.035 362.4 199.408ZM377.34 187.066C377.559 188.09 381.064 191.743 381.425 192.822C381.234 192.606 380.439 192.574 379.388 192.629C376.551 192.8 375.351 189.492 377.34 187.066ZM384.135 217.178C384.13 217.059 384.145 216.9 384.14 216.781C384.187 216.729 385.051 214.422 385.125 214.358C388.879 212.463 403.912 206.273 393.578 212.323C393.11 212.537 384.576 216.977 384.135 217.178Z" fill="#009D4F"/>
<path d="M665.672 112.538C664.423 112.867 662.596 109.967 659.385 119.603C658.627 119.282 660.715 113.985 659.951 113.849C658.742 110.302 656.415 105.354 653.368 102.982C653.177 102.766 653.013 102.537 652.793 102.334C650.979 100.401 647.99 98.4269 645.058 100.132C643.674 100.947 643.119 102.111 642.261 103.415C639.131 108.277 635.744 106.334 631.791 106.137C628.028 105.944 623.574 107.707 621.033 111.207C618.121 115.241 618.939 119.361 620.3 123.202C621.58 126.776 621.694 128.486 620.231 132.434C619.532 134.362 618.96 135.778 619.254 137.769C619.385 138.711 619.664 139.524 620.038 140.234C618.266 143.17 618.031 146.617 619.092 149.472C621.84 156.93 632.372 157.702 639.433 153.684C639.701 153.531 638.115 148.852 638.346 148.685C640.425 148.706 640.037 157.203 647.148 149.853C648.432 148.507 649.483 147.116 650.212 145.598C651.873 144.869 653.518 144.087 655.138 143.224C657.707 141.868 660.401 140.514 662.244 138.427C667.713 138.447 673.585 136.704 675.216 130.736C676.693 125.293 672.422 110.789 665.672 112.538ZM633.861 115.18C633.927 114.573 634.091 114.286 634.308 114.277C634.144 114.565 634.017 114.866 633.861 115.18ZM630 121.348C629.953 121.4 625.78 138.064 625.76 138.104C625.252 137.364 627.396 118.166 627.225 118.123C627.503 118.208 631.119 114.733 631.4 114.726C631.486 115.112 629.886 120.975 630 121.348ZM644.938 108.992C645.156 110.016 648.657 113.668 649.018 114.748C648.827 114.532 648.032 114.501 646.982 114.556C644.146 114.729 642.948 111.42 644.938 108.992ZM651.716 139.111C651.711 138.992 651.726 138.833 651.721 138.714C651.768 138.662 652.633 136.354 652.707 136.29C656.46 134.392 671.487 128.189 661.157 134.248C660.688 134.462 652.157 138.909 651.716 139.111Z" fill="#009D4F"/>
<g clip-path="url(#clip4)">
<path d="M497.927 156.201L487.924 154.76C486.933 154.609 486.354 155.832 487.071 156.52C492.179 161.326 502.599 168.124 504.87 172.643C506.814 176.497 509.838 167.473 502.473 157.482C501.542 156.191 499.492 156.411 497.927 156.201Z" fill="#009D4F"/>
<path d="M534.515 117.529C532.601 118.104 531.364 120.302 531.268 122.343C531.215 123.414 531.556 124.474 531.915 125.519C533.185 129.116 534.842 132.582 536.861 135.846C536.278 136.231 535.695 136.616 535.097 136.983C534.096 135.531 533.039 134.126 531.905 132.815C530.652 131.321 528.284 133.234 529.552 134.746C530.592 135.98 531.591 137.277 532.519 138.601C531.739 139.086 530.944 139.553 530.163 140.037C528.917 138.476 526.775 137.37 525.177 136.439C522.436 134.829 519.558 133.392 516.674 132.023C514.898 131.177 513.869 134.046 515.63 134.874C518.122 136.066 520.626 137.311 523.05 138.684C524.243 139.386 526.399 140.357 527.506 141.597C525.9 142.511 524.294 143.424 522.673 144.32C522.132 143.923 521.394 143.626 520.914 143.304C519.146 142.202 517.374 141.134 515.603 140.066C512.173 137.993 508.775 135.769 505.181 133.986C503.442 133.109 502.399 135.96 504.137 136.837C507.389 138.465 510.48 140.504 513.57 142.389C515.244 143.413 516.902 144.419 518.575 145.442C518.802 145.568 519.116 145.839 519.483 146.098C517.881 146.978 516.259 147.874 514.642 148.735C513.628 147.761 511.595 147.281 510.419 146.752C508.606 145.936 506.827 145.124 505.014 144.308C503.235 143.495 502.191 146.346 503.97 147.158C506.435 148.28 508.879 149.45 511.347 150.537C508.915 151.88 506.517 153.226 504.116 154.607C502.436 155.581 503.665 158.372 505.345 157.397C507.765 156.002 510.2 154.625 512.632 153.282C512.661 154.037 512.653 154.822 512.648 155.573C512.628 157.178 512.572 158.813 512.485 160.41C512.38 162.365 515.385 162.669 515.49 160.714C515.601 158.692 515.678 156.667 515.673 154.615C515.666 153.812 515.74 152.691 515.658 151.606C517.279 150.711 518.916 149.835 520.537 148.939C520.541 149.247 520.53 149.537 520.534 149.845C520.469 151.923 520.37 153.998 520.255 156.054C520.107 158.978 519.96 161.902 519.778 164.823C519.674 166.778 522.678 167.082 522.783 165.127C522.979 161.883 523.175 158.639 523.321 155.373C523.422 153.111 523.541 150.833 523.589 148.582C523.595 148.172 523.641 147.699 523.671 147.206C525.24 146.323 526.824 145.458 528.396 144.541C528.384 146.077 528.062 147.805 528.003 148.944C527.868 151.733 527.82 154.513 527.974 157.314C528.057 159.271 531.07 158.79 530.968 156.849C530.783 153.139 531.055 149.458 531.177 145.745C531.211 144.877 531.275 143.858 531.214 142.912C532.191 142.328 533.187 141.728 534.183 141.128C534.754 142.092 535.288 143.086 535.755 144.073C536.588 145.849 539.366 144.627 538.533 142.851C537.993 141.736 537.386 140.615 536.742 139.525C537.433 139.082 538.124 138.639 538.799 138.178C542.752 144.338 540.058 140.134 544.44 146.44C545.472 147.928 546.847 149.571 548.598 149.441C549.56 149.368 550.334 148.763 551.075 148.154C560.257 140.677 563.053 126.982 560.76 123.383C558.136 119.341 539.909 115.871 534.515 117.529ZM546.491 128.841C545.472 129.678 543.971 129.509 543.148 128.502C542.31 127.478 542.473 125.973 543.474 125.152C544.492 124.315 545.993 124.484 546.816 125.491C547.657 126.481 547.509 128.004 546.491 128.841Z" fill="#009D4F"/>
</g>
<path d="M719.689 180.848C715.899 170.375 711.366 149.404 723.552 149.305C736.524 149.199 748.012 147.347 744.1 165.633C749.066 153.933 758.678 142.754 774.035 150.662C792.987 160.421 778.545 178.722 766.716 188.658C771.914 185.865 782.22 184.827 797.86 194.297C817.675 206.295 804.68 221.015 795.705 226.875L719.689 180.848Z" fill="#009D4F"/>
<path d="M476.017 199.655C292.78 185.322 82.3236 212.262 0 227.524V256H1440V227.524C1275.88 200.451 1104.73 197.664 1039.67 199.655C854.838 142.324 586.888 175.767 476.017 199.655Z" fill="#009D4F"/>
<g clip-path="url(#clip5)">
<path d="M545.912 68.7256C545.4 68.1905 546.106 67.2611 546.654 67.8023C548.52 69.6874 550.589 71.2323 552.891 72.4796C552.959 72.3976 553.013 72.2943 553.082 72.2123L555.922 71.9405C559.362 69.0376 557.027 70.0116 558.944 67.0774C559.534 66.2968 560.113 65.4585 560.699 64.5837L560.712 64.3801C562.16 62.1718 563.63 59.9484 565.062 57.7188C565.967 56.355 566.857 54.9699 567.24 53.3687C567.602 51.7827 567.954 49.4279 566.754 48.2907C566.589 48.1509 564.722 47.1075 564.169 46.8276C562.238 45.8297 562.81 43.3809 563.735 41.4214L564.358 40.0666C564.932 38.9092 564.157 37.5625 563.027 36.9237L561.226 35.929C560.612 35.564 559.809 35.6911 559.363 36.2712C557.354 38.7223 556.935 42.095 553.868 40.4948C552.851 39.9685 551.21 39.0194 549.895 38.967C549.208 38.9453 548.543 39.2639 548.088 39.7863C544.442 43.8712 544.506 51.7415 543.028 58.0428C544.943 59.7305 547.092 61.1205 549.444 62.1702C550.142 62.4745 549.673 63.556 548.975 63.2517C546.696 62.2142 544.587 60.9245 542.697 59.3159C540.934 65.532 537.198 69.714 525.791 66.0212C523.787 65.3667 521.696 68.8144 520.68 71.0016C518.793 75.045 521.434 79.6988 523.98 83.4197C525.599 85.8061 526.564 87.7271 529.427 88.0206C531.536 88.2437 534.54 87.7563 536.281 86.5327C542.049 82.4674 547.882 78.9369 552.164 73.4242C549.862 72.1769 547.757 70.6259 545.912 68.7256Z" fill="#009D4F"/>
</g>
<g clip-path="url(#clip6)">
<path d="M663.578 26.0352C662.739 26.3369 661.823 26.073 661.021 25.7525C658.769 24.8475 656.784 23.4336 654.608 22.3779C652.432 21.3221 649.932 20.6057 647.585 21.2279C648.386 19.7197 647.031 17.5705 645.314 17.627C646.23 16.5525 646.153 14.7803 645.142 13.8C644.512 13.159 643.443 12.3861 643.958 11.632C644.092 11.4623 644.264 11.3492 644.436 11.2172C646.001 10.0861 646.401 7.6541 645.275 6.1082L646.306 5.7123C647.165 6.9377 649.207 6.71148 650.257 5.63689C651.306 4.56229 651.631 3.01639 651.917 1.5459C653.196 2.13033 654.15 3.90246 655.467 3.43115C656.803 2.95984 656.498 0.754098 657.681 0C657.681 1.1877 658.769 2.20574 659.952 2.31885C661.136 2.43197 662.319 1.75328 663.006 0.791803C663.33 1.88525 663.693 3.01639 664.418 3.90246C665.163 4.78852 666.365 5.3918 667.491 5.05246C667.93 4.92049 668.35 4.6377 668.808 4.71311C669.571 4.82623 669.858 5.75 669.839 6.52295C669.82 7.27705 669.686 8.12541 670.144 8.72869C670.984 9.78443 673.064 9.1623 673.808 10.3123C674.286 11.0664 673.827 12.0467 673.446 12.8574C673.064 13.668 672.873 14.818 673.618 15.3082C674.057 15.591 674.725 15.5721 675.049 15.9303C672.682 19.7197 668.35 22.1516 666.27 26.1484C666.231 26.2049 666.212 26.2803 666.212 26.3369C664.59 23.2639 667.033 18.5885 665.086 15.4025C664.876 15.0631 664.456 14.7238 664.113 14.95C664.094 14.9689 664.056 14.9877 664.037 15.0254C663.464 14.1016 663.063 13.0836 662.815 11.9713C662.777 11.7828 662.51 11.5943 662.3 11.6885C661.269 12.1033 660.754 12.6689 659.704 11.6508C659.456 11.4057 659.38 10.859 659.093 10.5762C658.96 10.4443 658.75 10.4066 658.597 10.5197C657.032 11.5189 655.2 11.2738 653.959 9.93525C653.635 9.5959 653.062 10.0484 653.291 10.4254C654.914 12.8951 655.601 15.8361 656.746 18.5508C656.956 19.0221 657.757 18.8148 657.547 18.3246C656.612 16.1189 655.982 13.7623 654.933 11.5943C655.563 11.877 656.25 11.9902 656.994 11.9336C657.318 11.9148 658.368 11.4246 658.578 11.5C659.132 11.7262 659.036 12.65 659.399 13.0459C660.296 14.0262 660.735 13.0459 661.651 12.9705C662.567 12.8762 662.643 14.1959 663.082 15.0066C663.369 15.5344 663.693 16.0057 664.075 16.477C664.456 18.7205 665.449 20.8885 665.315 23.1508C665.239 24.3197 664.705 25.6393 663.578 26.0352Z" fill="#009D4F"/>
<path d="M681.538 26.3934C676.767 26.3745 672.033 27.2041 667.281 27.6188C667.147 27.4868 667.033 27.3737 666.918 27.2418C666.747 27.0721 666.613 26.8647 666.479 26.6762C666.651 26.7893 666.899 26.7893 667.033 26.5442C668.865 23.0188 672.453 20.7 674.896 17.6082C674.686 18.7393 675.316 19.9459 676.232 20.6811C677.263 21.5106 678.58 21.8877 679.859 22.2459C678.561 23.1885 678.408 25.677 679.973 26.0729C680.469 26.2237 681.118 26.186 681.538 26.3934Z" fill="#009D4F"/>
<path d="M683.351 34.1795C678.427 31.8606 673.083 30.2393 667.873 28.5614C667.854 28.5049 667.854 28.4483 667.815 28.3918C672.491 27.9393 677.186 27.1664 681.882 27.2229C681.71 27.7508 680.87 28.109 680.507 28.6557C679.839 29.6549 680.946 30.8614 681.92 31.5967C682.76 32.2188 683.676 33.2934 683.351 34.1795Z" fill="#009D4F"/>
<path d="M684 41.777C682.969 42.7385 681.214 40.9287 679.935 41.532C678.465 42.2295 679.572 44.9443 678.198 45.8115C677.301 46.3582 676.175 45.6229 675.392 44.9065C671.327 41.1738 667.548 37.1393 664.113 32.841C665.01 32.7467 665.926 32.6525 666.823 32.5393C667.281 32.5016 667.854 32.332 667.892 31.8795C667.93 31.3893 667.3 31.1065 667.167 30.6164C667.052 30.1639 667.434 29.7869 667.682 29.3533C672.759 30.9746 677.988 32.577 682.798 34.8205C682.569 34.9902 682.301 35.1221 682.091 35.2918C681.175 36.1025 681.462 37.6106 682.111 38.6475C682.779 39.6844 683.733 40.5893 684 41.777Z" fill="#009D4F"/>
<path d="M642.622 39.8164C642.145 38.7041 644.149 37.8369 644.035 36.6304C643.901 35.2541 641.325 35.3107 641.038 33.9533C640.847 33.0673 641.802 32.3886 642.622 31.9738C646.898 29.8058 651.364 27.9771 655.925 26.5066C655.734 27.2607 655.543 28.0148 655.353 28.7689C655.257 29.1459 655.219 29.6738 655.582 29.8246C655.982 30.0131 656.402 29.5795 656.822 29.6172C657.223 29.655 657.433 30.0886 657.7 30.4091C654.837 34.0099 651.974 37.7238 648.692 40.9287C648.634 40.6836 648.596 40.4386 648.501 40.2123C648.119 39.232 646.783 39.0058 645.733 39.232C644.703 39.4582 643.672 39.9484 642.622 39.8164Z" fill="#009D4F"/>
</g>
<g clip-path="url(#clip7)">
<path d="M880.233 34.9296C877.582 33.6342 874.574 32.8939 871.701 32.3368C865.694 31.1433 859.569 30.9799 853.475 30.8732C854.883 28.8111 856.647 26.9983 858.152 25.0127C859.692 22.9903 861.177 20.4307 861.015 17.7775C860.851 14.8157 857.958 13.8497 855.691 12.5515C855.159 12.2493 854.666 12.8583 854.853 13.27C854.752 13.287 854.667 13.3323 854.59 13.4277C853.456 14.5776 852.359 15.7626 851.336 17.0174C850.958 17.4007 850.58 17.784 850.239 18.2023C849.446 19.171 848.772 20.2228 848.172 21.3445C847.869 21.7977 847.594 22.2358 847.312 22.6956C847.124 22.6861 846.937 22.7485 846.806 22.9458C844.733 26.1097 841.253 27.5004 837.787 28.6825C836.583 27.7515 835.461 26.7035 834.438 25.5667C834.464 21.8098 834.248 17.9802 832.97 14.4226C831.643 10.7082 829.137 7.89357 826.359 5.18659C826.363 5.09311 826.383 5.02797 826.387 4.93449C826.458 4.45863 825.887 4.28678 825.537 4.41802C824.564 4.78813 823.669 5.29986 822.864 5.90979C822.744 5.99193 822.617 6.09579 822.49 6.19964C820.784 7.58001 819.463 9.43152 818.746 11.5833C818.7 11.7353 818.711 11.8571 818.751 11.9638C819.3 14.9228 820.448 17.6364 821.577 20.4151C821.601 20.4935 821.626 20.5719 821.679 20.6351C817.66 19.5908 813.84 17.9668 810.318 15.7461C809.978 15.5251 809.399 15.7772 809.436 16.2144C809.671 18.4634 810.158 20.6699 810.976 22.8104C811.714 24.7374 812.49 26.0602 814.533 26.7467C818.357 28.0402 822.658 28.2225 826.658 28.2905C826.73 28.2886 826.78 28.2801 826.837 28.2499C829.401 30.3951 832.632 31.5102 835.845 32.2883C839.233 33.1192 842.685 33.4959 846.167 33.4554C847.541 35.1002 849.69 35.9131 851.661 36.6014C851.815 36.6477 855.953 37.6099 856.828 37.5655C856.684 37.8063 858.449 45.7251 871.676 46.2275C881.805 46.6025 882.549 40.2916 882.603 39.9527C882.915 37.1579 882.154 35.8634 880.233 34.9296ZM879.386 41.1857C879.549 40.6428 879.683 40.115 879.905 39.6137C879.799 40.1264 879.614 40.6626 879.386 41.1857ZM825.268 17.525C825.276 17.5751 825.285 17.6251 825.301 17.6535C825.285 17.6251 825.255 17.5685 825.239 17.5401C825.239 17.5401 825.246 17.5184 825.268 17.525ZM827.007 21.2215C827.029 21.2281 827.044 21.2564 827.066 21.263C827.016 21.2715 826.981 21.3084 826.952 21.3235C826.93 21.3169 826.915 21.2885 826.915 21.2885C826.943 21.2734 826.978 21.2366 827.007 21.2215ZM825.151 5.86449C825.151 5.86449 825.129 5.85788 825.151 5.86449C825.129 5.85788 825.151 5.86449 825.151 5.86449ZM852.364 34.0191C852.408 34.0323 852.452 34.0456 852.48 34.0305L852.474 34.0522C852.423 34.0607 852.408 34.0323 852.364 34.0191ZM878.296 40.4313C878.359 40.3794 878.423 40.3274 878.493 40.2538C878.473 40.319 878.454 40.3841 878.434 40.4492C878.39 40.436 878.346 40.4228 878.296 40.4313ZM855.253 16.3263C855.224 16.3414 855.218 16.3631 855.189 16.3782C855.224 16.3414 855.259 16.3046 855.266 16.2828C855.259 16.3046 855.253 16.3263 855.253 16.3263ZM840.947 30.6757C841.133 30.6134 841.319 30.5511 841.505 30.4887C842.067 30.6105 842.691 31.0826 843.161 31.2715C843.778 31.5283 844.393 31.7134 845.049 31.8399C845.114 31.8597 845.187 31.8578 845.259 31.8559C845.299 31.9626 845.339 32.0693 845.4 32.1826C843.812 31.8937 842.339 31.3791 840.947 30.6757ZM862.258 32.7843C860.823 32.3046 859.255 32.4245 857.749 32.4207C856.098 32.4207 854.447 32.4207 852.795 32.4206C852.751 32.4074 852.723 32.4225 852.695 32.4376C852.651 32.4244 852.6 32.4329 852.556 32.4197C852.624 32.2743 852.713 32.1355 852.803 31.9967C852.825 32.0033 852.847 32.0099 852.847 32.0099C856.325 32.0628 859.818 32.1441 863.303 32.4123C862.944 32.4935 862.593 32.6247 862.258 32.7843ZM851.038 19.1295C851.018 19.1946 850.977 19.2532 850.957 19.3183C850.931 19.4052 850.89 19.4637 850.864 19.5506C850.281 20.5354 849.758 21.5617 849.32 22.5427C848.129 25.2383 847.539 28.1624 847.689 31.0959C847.578 30.8259 847.474 30.5341 847.399 30.2273C846.873 28.151 847.41 26.0399 848.185 24.0949C848.585 23.0789 849.051 22.0828 849.605 21.1132C850.062 20.4693 850.553 19.7885 851.038 19.1295ZM881.055 37.8528C881.04 37.8245 881.031 37.7744 881.015 37.7461C881.044 37.731 881.05 37.7093 881.072 37.7159C881.068 37.8094 881.086 37.9094 881.082 38.0029C881.073 37.9529 881.064 37.9028 881.055 37.8528ZM880.744 36.5753C880.716 36.5904 880.672 36.5772 880.687 36.6055C880.889 37.2108 880.499 38.7507 873.722 38.3673C872.921 38.2445 868.261 37.5043 867.474 37.3381C864.267 36.5383 860.545 35.2278 860.545 35.2278C860.706 35.0871 862.318 33.702 865.706 33.0175C867.21 32.7126 868.476 33.1176 868.506 32.9373C869.292 33.0317 867.705 32.8145 868.506 32.9373C870.23 33.1724 877.836 34.3027 880.744 36.5753ZM855.543 13.7619C855.565 13.7685 855.565 13.7685 855.587 13.7751L855.559 13.7902C855.537 13.7836 855.537 13.7836 855.543 13.7619ZM842.8 27.8479C842.553 28.0339 842.312 28.1982 842.071 28.3625C841.911 28.3379 841.738 28.3568 841.582 28.4758C840.891 29.0253 840.061 29.3198 839.195 29.4142C839.094 29.4312 839.015 29.4548 838.952 29.5068C838.93 29.5002 838.908 29.4935 838.915 29.4718C840.247 29.0205 841.554 28.4909 842.8 27.8479ZM831.977 15.0231C832.975 17.9991 833.26 21.1158 833.285 24.225C832.583 23.3743 831.938 22.4934 831.343 21.6039C828.341 17.172 826.053 12.0318 826.25 6.66894C828.678 9.10494 830.85 11.6769 831.977 15.0231ZM825.67 27.1169C825.387 27.1027 825.097 27.1103 824.792 27.0895C824.77 27.0829 824.755 27.0546 824.711 27.0414C823.338 26.2728 822.604 24.8915 822.314 23.3836C822.185 22.7765 822.175 22.2525 821.981 21.8625C822.024 21.8758 822.09 21.8956 822.134 21.9088C822.178 21.922 822.222 21.9352 822.25 21.9201C823.125 23.7934 824.235 25.5958 825.67 27.1169ZM811.709 19.4085C811.731 19.4151 811.796 19.435 811.834 19.4699C811.827 19.4916 811.821 19.5133 811.792 19.5284C811.755 19.4935 811.733 19.4869 811.711 19.4803C811.724 19.4368 811.724 19.4368 811.709 19.4085ZM813.181 20.5623C813.175 20.584 813.19 20.6124 813.177 20.6558C813.021 20.5378 812.918 20.483 812.924 20.4613C812.924 20.4613 813.034 20.4943 813.181 20.5623ZM813.228 24.5543C813.215 24.5977 813.202 24.6411 813.196 24.6629C813.128 24.5713 813.053 24.5014 812.991 24.3881C813.066 24.458 813.147 24.5061 813.228 24.5543ZM827.196 27.0556C825.065 25.0643 823.675 22.515 822.608 19.8496C821.541 17.1842 820.454 14.5839 819.911 11.7684C819.956 11.6163 820.024 11.4709 820.069 11.3189C820.074 11.4624 820.057 11.5993 820.062 11.7429C820.073 11.8647 820.113 11.9714 820.181 12.0629C820.367 14.1552 821.075 16.0256 822.168 17.728C822.657 19.3671 823.311 20.9373 824.12 22.3885C825.6 25.036 827.925 27.6542 830.666 29.0478C832.199 29.8409 833.884 30.2063 835.537 30.6803C836.729 31.0155 837.907 31.3942 839.108 31.7794C838.198 31.6236 837.316 31.4527 836.425 31.2317C833.111 30.4707 829.729 29.3811 827.196 27.0556ZM866.867 44.0691C867.115 44.1201 867.363 44.1711 867.611 44.222C867.868 44.3231 868.131 44.4024 868.388 44.5034C867.877 44.3731 867.372 44.2211 866.867 44.0691Z" fill="#009D4F"/>
</g>
<g clip-path="url(#clip8)">
<path d="M951.588 82.1528C953.935 83.8519 956.439 85.3387 958.955 86.7993C962.429 88.8101 965.938 90.7424 969.482 92.5961C970.995 93.3926 971.927 90.9237 970.414 90.1272C967.667 88.6894 964.969 87.2109 962.295 85.68C960.193 84.4973 958.115 83.2622 956.06 81.9747C955.072 81.3486 952.371 80.3072 952.002 79.1406C951.82 78.6214 952.67 76.5545 953.175 75.8389C953.428 75.4811 953.655 75.1115 953.908 74.7537C958.655 77.6742 963.496 80.385 968.493 82.8835C970.018 83.6538 970.95 81.185 969.425 80.4147C964.613 77.9982 960.483 74.5373 955.909 71.7252C956.089 71.4604 955.729 71.9899 955.909 71.7252C956.615 70.6283 957.056 69.9155 957.755 68.6904C962.409 71.0365 967.312 72.9606 971.789 75.6356C973.241 76.4989 974.838 74.3873 973.359 73.5122C968.803 70.8021 964.154 68.3016 959.448 65.932C959.977 65.164 960.532 64.4077 961.132 63.7652C962.92 61.8639 966.132 64.0402 966.132 64.0402C967.724 64.8719 969.29 65.6918 970.883 66.5235C974.015 68.1634 977.132 69.7654 980.253 71.4315C981.739 72.2163 982.672 69.7474 981.185 68.9627C977.321 66.9042 973.434 64.8981 969.547 62.892C967.185 61.6562 963.63 58.8262 960.758 60.2469C959.259 60.992 958.398 63.0851 957.535 64.3943C956.803 65.4794 956.086 66.6025 955.353 67.6876C944.804 61.4419 934.965 54.4462 925.704 46.3591C924.447 45.2689 922.946 47.2351 924.051 48.3831C923.995 48.7968 924.12 49.2284 924.5 49.5849C932.987 57.4224 942.254 64.3525 952.192 70.2645C952.739 70.601 953.327 70.4859 953.739 70.1984C952.995 71.3098 952.266 72.459 951.522 73.5704C950.671 74.8533 948.873 76.5623 948.607 78.1674C948.286 79.9675 950.284 81.1674 951.588 82.1528Z" fill="#009D4F"/>
</g>
<g clip-path="url(#clip9)">
<path d="M1049.14 122.149C1047.02 122.044 1044.6 122.288 1042.52 122.867C1041.81 123.074 1041.26 123.617 1041.38 124.425C1041.48 125.078 1042.21 125.773 1042.93 125.589C1043.12 125.532 1043.31 125.498 1043.51 125.464C1043.54 125.476 1043.6 125.479 1043.63 125.491C1046.25 125.533 1043.53 128.441 1042.61 129.121C1041.87 129.667 1040.99 130.085 1040.2 130.518C1038.82 131.264 1037.44 131.987 1036.04 132.665C1032.38 134.187 1028.59 135.418 1024.72 136.282C1024.02 136.434 1022.87 136.949 1022.71 135.513C1022.64 134.873 1024.17 133.784 1024.6 133.432C1025.93 132.409 1027.33 131.49 1028.77 130.66C1031.52 129.059 1034.39 127.751 1037.34 126.545C1038.96 125.877 1037.86 123.384 1036.24 124.052C1031.94 125.752 1027.71 127.796 1023.93 130.477C1021.65 132.111 1018.38 134.806 1020.72 137.931C1021.5 138.958 1022.7 139.28 1024.02 139.257C1024.04 139.302 1024.05 139.325 1024.06 139.347C1028.4 147.15 1031.89 155.439 1036.56 163.071C1038.01 165.438 1039.74 167.676 1042.46 168.535C1045.87 169.625 1048.56 167.89 1051.59 166.622C1054.27 165.479 1058.22 164.959 1060.14 162.571C1062.3 159.887 1060.43 154.721 1059.6 151.836C1057.14 143.224 1052.48 135.373 1050.53 126.588C1050.49 126.444 1050.43 126.309 1050.37 126.174C1051.07 125.648 1051.64 125.017 1051.7 124.208C1051.82 122.73 1050.31 122.217 1049.14 122.149ZM1049.11 123.641L1049.12 123.609C1049.26 123.549 1049.18 123.611 1049.11 123.641ZM1039.71 138.183C1039.72 138.206 1039.73 138.228 1039.73 138.228C1039.72 138.206 1039.72 138.206 1039.71 138.183ZM1053.09 144.245C1053.11 144.212 1053.88 143.976 1053.89 143.943C1054.14 144.56 1056.81 152.731 1056.77 152.641C1056.55 152.202 1053.32 144.684 1053.09 144.245ZM1048.14 128.294C1048.17 128.285 1048.17 128.285 1048.14 128.294L1048.15 128.317C1048.15 128.317 1048.15 128.317 1048.14 128.294ZM1049.54 124.958L1049.5 124.945C1049.54 124.958 1049.54 124.958 1049.54 124.958ZM1049.4 124.94C1049.42 124.93 1049.42 124.93 1049.4 124.94C1049.43 124.953 1049.43 124.953 1049.43 124.953C1049.46 124.965 1049.49 124.978 1049.52 124.99C1049.51 124.968 1049.44 124.975 1049.4 124.94ZM1026.83 138.758C1027.95 138.451 1029.04 138.043 1029.96 137.715C1029.95 137.747 1029.96 137.77 1029.95 137.802C1029.21 137.996 1028.59 138.757 1028.96 139.665C1031 144.73 1033.05 149.839 1035.6 154.676C1036.41 156.737 1037.29 158.736 1038.28 160.717C1037.97 160.153 1037.67 159.589 1037.39 159.07C1033.64 152.373 1030.49 145.441 1026.83 138.758Z" fill="#009D4F"/>
</g>
<defs>
<clipPath id="clip0">
<rect width="35.9466" height="48.8011" transform="matrix(0.928175 0.372143 -0.37081 0.928709 831.443 87.3979)" fill="white"/>
</clipPath>
<clipPath id="clip1">
<rect x="723" y="42" width="43" height="57" fill="white"/>
</clipPath>
<clipPath id="clip2">
<rect width="49.462" height="52.3354" transform="matrix(0.76819 -0.640222 0.638649 0.769499 383.134 126.954)" fill="white"/>
</clipPath>
<clipPath id="clip3">
<rect width="31.2092" height="59.1785" transform="matrix(0.583535 0.812088 -0.810934 0.585137 1088.79 181)" fill="white"/>
</clipPath>
<clipPath id="clip4">
<rect width="77.9966" height="40.9174" transform="matrix(0.772817 -0.634629 0.633051 0.77411 482.805 151.303)" fill="white"/>
</clipPath>
<clipPath id="clip5">
<rect width="31.2092" height="59.1785" transform="matrix(0.583535 0.812088 -0.810934 0.585137 559.463 31.479)" fill="white"/>
</clipPath>
<clipPath id="clip6">
<rect x="641" width="43" height="46" fill="white"/>
</clipPath>
<clipPath id="clip7">
<rect width="76.9943" height="28.566" transform="matrix(0.957525 0.288349 -0.28725 0.957856 814.26 0.0510254)" fill="white"/>
</clipPath>
<clipPath id="clip8">
<rect width="27.6091" height="62.7467" transform="matrix(-0.404046 0.914739 -0.914115 -0.405455 982.91 68.3486)" fill="white"/>
</clipPath>
<clipPath id="clip9">
<rect width="34.2256" height="45.6977" transform="matrix(0.913435 -0.406984 0.405572 0.914063 1017.99 132.073)" fill="white"/>
</clipPath>
</defs>
</svg>
