<svg width="40" height="40" viewBox="0 0 40 40" fill="none" xmlns="http://www.w3.org/2000/svg">
<g clip-path="url(#clip0)">
<rect y="0.000244141" width="40" height="40" fill="#009D4F"/>
<path d="M34.1433 5.85611C26.2928 -1.99436 13.7072 -1.99436 5.8567 5.85611C2.11838 9.59443 0 14.7035 0 20.0617C0 24.6723 1.49533 29.0337 4.36137 32.6474L2.99065 38.8779C2.99065 39.1271 2.99065 39.2518 3.11526 39.501C3.23988 39.6256 3.36449 39.6256 3.4891 39.6256H3.61371L10.2181 37.3826C19.8131 42.8655 32.0249 39.3764 37.5078 29.7813C39.2523 26.7907 40.1246 23.4262 40.1246 19.9371C40 14.7035 37.8816 9.59443 34.1433 5.85611ZM20.0623 38.7533C16.947 38.7533 13.9564 38.0056 11.215 36.5103C11.0903 36.2611 10.8411 36.0119 10.4673 36.1365L4.48598 38.0056L5.73209 32.1489C5.73209 31.7751 5.60748 31.5259 5.23364 31.4013C-1.1215 23.3016 0.373832 11.4636 8.47352 5.10845C16.5732 -1.24669 28.4112 0.248636 34.7664 8.34832C41.1215 16.448 39.6262 28.286 31.5265 34.6412C28.162 37.3826 24.1745 38.7533 20.0623 38.7533Z" fill="white"/>
<path d="M16.5733 16.9473C17.1964 16.1996 17.321 15.0781 16.8225 14.3305C16.3241 13.3336 15.2026 10.5922 15.078 10.3429C14.7041 9.59527 13.9565 9.22144 13.2088 9.22144C12.835 9.22144 12.3365 9.22144 11.9627 9.22144C11.8381 9.22144 8.72284 9.71988 8.22439 14.3305C7.97517 16.4489 8.97206 19.0657 11.215 21.9317C13.3334 24.7978 16.0749 27.1654 19.1901 28.6607C21.1839 29.7822 23.3023 30.4052 25.5453 30.5299H25.7945C27.539 30.6545 29.159 29.9068 30.2805 28.5361C30.7789 27.913 31.0281 27.29 31.1527 26.5423C31.1527 26.4177 31.1527 26.1685 31.2774 25.2962C31.402 24.5485 30.9035 23.6763 30.1559 23.3024L26.4175 21.4333C25.5453 20.9348 24.4238 21.1841 23.8007 21.9317C23.5515 22.1809 23.4269 22.4302 23.1777 22.6794C22.9284 23.0532 22.5546 23.427 22.3054 23.8009C20.9347 23.427 19.6886 22.6794 18.6917 21.8071C17.4456 20.8102 16.3241 19.5641 15.4518 18.1934C15.4518 18.1934 15.4518 18.1934 15.4518 18.0688C15.701 17.8196 16.1995 17.3211 16.5733 16.9473ZM17.5702 23.1778C18.4425 23.8009 19.4393 24.4239 20.3116 25.047C20.8101 25.2962 22.43 26.1685 23.4269 25.2962C23.8007 24.7978 24.1746 24.4239 24.5484 23.9255C24.673 23.6763 24.9222 23.427 24.9222 23.427L25.0468 23.3024C25.1714 23.1778 25.296 23.0532 25.6699 23.1778L29.4082 25.047C29.5328 25.1716 29.5328 25.2962 29.5328 25.4208C29.5328 25.7946 29.5328 26.0439 29.5328 26.4177C29.4082 26.9161 29.2836 27.29 28.9098 27.6638C28.0375 28.5361 26.916 29.0345 25.6699 28.9099C23.6761 28.7853 21.6823 28.2869 19.9378 27.29C16.9471 25.7946 14.4549 23.6763 12.5858 21.0594C10.7166 18.5672 9.84433 16.3242 9.96894 14.7043C10.3428 11.589 12.0873 11.0906 12.2119 11.0906H13.2088C13.3334 11.0906 13.458 11.0906 13.5827 11.2152C13.5827 11.3398 14.8288 14.0812 15.3272 15.2027C15.5764 15.7012 15.4518 15.9504 15.3272 15.9504V16.075C14.8288 16.6981 14.4549 17.0719 14.3303 17.1965C13.8319 17.8196 13.7073 18.6918 14.0811 19.3149C14.9534 20.6856 16.1995 22.0563 17.5702 23.1778Z" fill="white"/>
</g>
<defs>
<clipPath id="clip0">
<rect y="0.000244141" width="40" height="40" fill="white"/>
</clipPath>
</defs>
</svg>
