<svg width="61" height="53" viewBox="0 0 61 53" fill="none" xmlns="http://www.w3.org/2000/svg">
<g clip-path="url(#clip0)">
<path d="M55.249 23.2439C53.9607 23.0027 53.0619 19.2945 47.1896 27.4043C46.5604 26.741 50.0957 22.4299 49.4066 21.9475C49.2868 17.8775 48.5078 11.9083 46.2907 8.16992C46.1709 7.86844 46.081 7.56696 45.9312 7.26548C44.7627 4.52202 42.4857 1.20575 39.19 1.56753C37.6321 1.74841 36.7632 2.65285 35.5648 3.55729C31.1606 6.964 28.4941 3.49699 24.7789 1.50723C21.2436 -0.392088 16.4798 -0.663419 13.0343 1.65797C9.07953 4.34113 8.66008 8.80302 8.83984 13.2348C9.01961 17.365 8.63012 19.1136 6.08346 22.3696C4.85507 23.9674 3.89633 25.113 3.59672 27.2234C3.44692 28.2183 3.47688 29.1529 3.62668 30.0271C1.08002 32.1375 -0.148369 35.4538 0.0313951 38.77C0.480806 47.4225 10.3079 52.9697 18.2175 52.1858C18.5172 52.1557 18.3673 46.7894 18.637 46.7291C20.6144 47.6938 17.7681 55.9543 26.6964 51.8844C28.3143 51.1307 29.7225 50.2262 30.861 49.0505C32.6586 49.0806 34.4563 49.0505 36.2539 48.9299C39.1002 48.749 42.0663 48.6284 44.4332 47.3923C49.6463 49.8946 55.7583 50.8292 59.054 45.6437C62.0501 40.9105 62.1999 24.5704 55.249 23.2439Z" fill="#FFA400"/>
</g>
<path d="M25.6189 24.4382C26.1842 23.7584 26.2972 22.7387 25.845 22.0589C25.3928 21.1525 24.3754 18.6599 24.2623 18.4333C23.9232 17.7535 23.2449 17.4136 22.5666 17.4136C22.2275 17.4136 21.7753 17.4136 21.4361 17.4136C21.3231 17.4136 18.4969 17.8668 18.0447 22.0589C17.8186 23.985 18.7229 26.3643 20.7578 28.9702C22.6797 31.5761 25.1667 33.7288 27.9929 35.0885C29.8017 36.1082 31.7235 36.6747 33.6454 36.788H33.8715C35.4542 36.9013 36.9238 36.2215 38.0543 34.9752C38.5065 34.4087 38.7326 33.8421 38.8456 33.1623C38.8456 33.049 38.8456 32.8224 38.9587 32.0293C39.0717 31.3495 38.6195 30.5564 37.9412 30.2165L34.5498 28.517C33.7584 28.0638 32.741 28.2904 32.1757 28.9702C31.9496 29.1968 31.8366 29.4234 31.6105 29.65C31.3844 29.9899 31.0453 30.3298 30.8192 30.6697C29.5756 30.3298 28.4451 29.65 27.5407 28.8569C26.4103 27.9505 25.3928 26.8175 24.6015 25.5712C24.6015 25.5712 24.6015 25.5712 24.6015 25.4579C24.8276 25.3446 25.2798 24.7781 25.6189 24.4382ZM26.5233 30.2165C27.3147 30.783 28.219 31.3495 29.0104 31.916C29.4626 32.1426 30.9322 32.9357 31.8366 32.1426C32.1757 31.6894 32.5149 31.3495 32.854 30.8963C32.9671 30.6697 33.1932 30.4431 33.1932 30.4431L33.3062 30.3298C33.4193 30.2165 33.5323 30.1032 33.8715 30.2165L37.2629 31.916C37.376 32.0293 37.376 32.1426 37.376 32.2559C37.376 32.5958 37.376 32.8224 37.376 33.1623C37.2629 33.6155 37.1499 33.9554 36.8107 34.2953C36.0194 35.0885 35.002 35.5417 33.8715 35.4284C32.0627 35.3151 30.2539 34.8619 28.6712 33.9554C25.9581 32.5958 23.6971 30.6697 22.0014 28.2904C20.3056 26.0244 19.5143 23.985 19.6273 22.5121C19.9665 19.6796 21.5492 19.2264 21.6622 19.2264H22.5666C22.6797 19.2264 22.7927 19.2264 22.9058 19.3397C22.9058 19.453 24.0362 21.9456 24.4884 22.9653C24.7145 23.4185 24.6015 23.5318 24.4884 23.6451V23.7584C24.0362 24.3249 23.6971 24.6648 23.584 24.7781C23.1318 25.3446 23.0188 26.1377 23.3579 26.7042C24.1493 27.8372 25.2798 29.1968 26.5233 30.2165Z" fill="#FCFCFC"/>
<defs>
<clipPath id="clip0">
<rect width="61" height="53" fill="white"/>
</clipPath>
</defs>
</svg>
