<svg width="69" height="69" viewBox="0 0 69 69" fill="none" xmlns="http://www.w3.org/2000/svg">
<path d="M34.2538 68.6601C53.1716 68.6601 68.5075 53.29 68.5075 34.33C68.5075 15.3701 53.1716 0 34.2538 0C15.3359 0 0 15.3701 0 34.33C0 53.29 15.3359 68.6601 34.2538 68.6601Z" fill="#FFA400"/>
<path d="M45.5586 18.468C38.4365 11.33 27.0186 11.33 19.8965 18.468C16.5051 21.867 14.5833 26.5123 14.5833 31.3842C14.5833 35.5763 15.9398 39.5418 18.54 42.8276L17.2964 48.4926C17.2964 48.7192 17.2964 48.8325 17.4095 49.0591C17.5225 49.1724 17.6356 49.1724 17.7486 49.1724H17.8617L23.6271 47.2463C32.3319 52.2315 43.4107 49.0591 48.3848 40.3349C49.9675 37.6157 50.7588 34.5566 50.7588 31.3842C50.8719 26.399 48.9501 21.867 45.5586 18.468ZM32.7841 48.3793C29.9579 48.3793 27.2447 47.6995 24.8707 46.3399C24.7576 46.1133 24.5315 45.8867 24.1924 46L18.7661 47.6995L19.8965 42.3744C19.8965 42.0345 19.7835 41.8079 19.4443 41.6946C13.6789 34.33 15.0354 23.5665 22.3836 17.7881C29.7318 12.0098 40.4714 13.3694 46.2369 20.734C52.0024 28.0985 50.6458 38.862 43.2976 44.6404C40.2453 47.0197 36.5147 48.3793 32.7841 48.3793Z" fill="#FCFCFC"/>
<path d="M29.6187 28.4385C30.1839 27.7586 30.297 26.7389 29.8448 26.0591C29.3926 25.1527 28.3751 22.6601 28.2621 22.4335C27.9229 21.7537 27.2447 21.4138 26.5664 21.4138C26.2272 21.4138 25.775 21.4138 25.4359 21.4138C25.3228 21.4138 22.4966 21.867 22.0444 26.0591C21.8183 27.9852 22.7227 30.3646 24.7576 32.9705C26.6794 35.5764 29.1665 37.7291 31.9927 39.0887C33.8015 40.1084 35.7233 40.6749 37.6451 40.7882H37.8712C39.4539 40.9015 40.9235 40.2217 42.054 38.9754C42.5062 38.4089 42.7323 37.8424 42.8454 37.1626C42.8454 37.0493 42.8454 36.8227 42.9584 36.0296C43.0715 35.3498 42.6193 34.5567 41.941 34.2168L38.5495 32.5173C37.7582 32.0641 36.7407 32.2907 36.1755 32.9705C35.9494 33.1971 35.8364 33.4237 35.6103 33.6503C35.3842 33.9902 35.045 34.3301 34.8189 34.67C33.5754 34.3301 32.4449 33.6503 31.5405 32.8572C30.41 31.9508 29.3926 30.8178 28.6012 29.5715C28.6012 29.5715 28.6012 29.5715 28.6012 29.4582C28.8273 29.3449 29.2795 28.7784 29.6187 28.4385ZM30.5231 34.2168C31.3144 34.7833 32.2188 35.3498 33.0101 35.9163C33.4623 36.1429 34.932 36.936 35.8364 36.1429C36.1755 35.6897 36.5146 35.3498 36.8538 34.8966C36.9668 34.67 37.1929 34.4434 37.1929 34.4434L37.306 34.3301C37.419 34.2168 37.5321 34.1035 37.8712 34.2168L41.2627 35.9163C41.3757 36.0296 41.3757 36.1429 41.3757 36.2562C41.3757 36.5961 41.3757 36.8227 41.3757 37.1626C41.2627 37.6158 41.1496 37.9557 40.8105 38.2956C40.0192 39.0887 39.0017 39.5419 37.8712 39.4286C36.0625 39.3153 34.2537 38.8621 32.671 37.9557C29.9578 36.5961 27.6968 34.67 26.0011 32.2907C24.3054 30.0247 23.514 27.9852 23.6271 26.5123C23.9662 23.6798 25.5489 23.2266 25.662 23.2266H26.5664C26.6794 23.2266 26.7925 23.2266 26.9055 23.3399C26.9055 23.4532 28.036 25.9458 28.4882 26.9655C28.7143 27.4187 28.6012 27.532 28.4882 27.6453V27.7586C28.036 28.3251 27.6968 28.6651 27.5838 28.7784C27.1316 29.3449 27.0186 30.138 27.3577 30.7045C28.149 31.8375 29.2795 33.1971 30.5231 34.2168Z" fill="#FCFCFC"/>
</svg>
